<?xml version="1.0" encoding="utf-8"?>
<!-- Generator: Adobe Illustrator 10.0, SVG Export Plug-In . SVG Version: 3.0.0 Build 76)  -->
<!DOCTYPE svg PUBLIC "-//W3C//DTD SVG 1.0//EN"    "http://www.w3.org/TR/2001/REC-SVG-20010904/DTD/svg10.dtd" [
	<!ENTITY ns_flows "http://ns.adobe.com/Flows/1.0/">
	<!ENTITY ns_extend "http://ns.adobe.com/Extensibility/1.0/">
	<!ENTITY ns_ai "http://ns.adobe.com/AdobeIllustrator/10.0/">
	<!ENTITY ns_svg "http://www.w3.org/2000/svg">
	<!ENTITY ns_xlink "http://www.w3.org/1999/xlink">
]>
<svg  xmlns:x="&ns_extend;" xmlns:i="&ns_ai;" xmlns:graph="&ns_graphs;"
	 xmlns="&ns_svg;" xmlns:xlink="&ns_xlink;" xmlns:a="http://ns.adobe.com/AdobeSVGViewerExtensions/3.0/" width="476" height="147"
	 viewBox="-0.273 -0.226 476 147" overflow="visible" enable-background="new -0.273 -0.226 476 147" xml:space="preserve">
	<g id="Layer_1_2_">
		<g>
			<path fill="none" stroke="#000000" d="M50.197,10.806h425.028"/>
			<path fill="none" stroke="#000000" d="M50.197,24.918h425.028"/>
			<path fill="none" stroke="#000000" d="M50.409,32.041h425.028"/>
			<path fill="none" stroke="#000000" d="M50.084,39.424h425.028"/>
			<path fill="none" stroke="#000000" d="M50.084,18.06h425.028"/>
		</g>
		<path fill="none" stroke="#0A0A0A" d="M49.583,9.678v109.461"/>
		<g>
			<path d="M130.347,36.555c-0.713,0-1.217-0.536-1.217-1.25s0.524-1.25,1.259-1.25s1.238,0.516,1.238,1.25
				c0,0.714-0.503,1.25-1.259,1.25H130.347z"/>
		</g>
		<g>
			<path d="M63.307,37.186c-4.944-2.352-5.736-5.376-5.952-8.472c-0.24-3.36,1.896-6.768,3.888-8.664
				c1.152-1.08,2.4-2.136,3.888-3.264c-0.048-0.84-0.24-1.176-0.336-2.376c-0.024-0.504-0.336-2.856,0.168-5.568
				c0.312-1.608,2.328-5.4,3.72-5.424c1.08-0.024,2.736,4.296,2.784,6.456c0.072,3.336-0.72,4.848-1.704,6.576
				c-0.504,0.864-1.032,1.464-1.584,2.136c-0.576,0.696-1.224,1.104-1.824,1.632c0,0,0.768,4.344,0.792,4.656
				c1.536-0.192,3.408,0.36,4.08,0.84c1.704,1.272,2.352,3.024,2.472,4.728c0.216,2.712-1.272,5.568-4.56,6.936
				c0,0,0.504,3.456,0.624,4.176c0.264,1.896,0.216,3.096-0.192,3.864c-0.696,1.296-1.824,2.496-4.008,2.64
				c-1.68,0.096-4.992-0.744-5.16-3.384c-0.096-1.56,0.6-3.24,2.496-3.36c1.152-0.096,2.52,0.864,2.616,2.232
				c0.096,1.176-0.672,2.4-2.664,2.952c0.312,0.432,1.248,0.936,2.592,0.936c1.392,0,2.832-0.936,3.528-2.184
				c0.432-0.816,0.384-2.28,0.216-3.624c-0.072-0.456-0.648-4.08-0.648-4.08C66.763,37.833,64.315,37.666,63.307,37.186z
				 M63.787,31.498c0.048,1.152,1.008,2.496,1.896,2.952c-0.12,0.072-0.24,0.264-0.24,0.264c-0.984-0.48-1.824-1.272-2.04-1.56
				c-0.696-0.936-0.984-1.464-1.08-2.88c-0.096-1.32,0.624-3.096,2.232-4.344c0.84-0.624,1.248-0.768,1.968-0.936l-0.72-4.344
				c-0.744,0.432-3.816,2.904-5.112,4.92c-1.152,1.8-1.848,3.24-1.704,5.016c0.288,4.008,4.68,7.296,9.432,6.168
				c0,0-1.416-8.52-1.392-8.52C64.411,28.33,63.715,30.346,63.787,31.498z M65.731,16.281c2.088-1.632,4.92-4.704,4.752-7.08
				c-0.048-0.744-0.36-2.088-1.44-2.064C66.571,7.161,65.179,12.321,65.731,16.281z M68.995,36.562
				c2.76-0.936,2.88-3.312,2.784-4.728c-0.096-1.176-0.624-3.816-4.128-3.648L68.995,36.562z"/>
		</g>
		<g>
			<path d="M124.824,48.473c2.04,0.024,3.144,1.416,2.52,3.12c-0.624,1.728-2.784,3.096-4.8,3.072
				c-0.984-0.024-1.776-0.384-2.232-0.936v19.08h-0.456c0-24.216,0-20.4,0-20.4c0-0.288,0.072-0.576,0.192-0.888
				C120.671,49.792,122.808,48.449,124.824,48.473z"/>
		</g>
		<g>
			<path d="M157.824,41.449c2.04,0.024,3.168,1.44,2.52,3.144c-0.288,0.816-0.936,1.536-1.728,2.088
				c0.816,1.824,1.344,3.744,1.008,6.168c-0.192,1.272-0.6,2.736-1.584,4.368c-1.032,1.728-2.112,3.36-3.048,4.68
				c-0.816,1.128-1.632,2.64-1.632,3.984h-0.456v-0.096h-0.048c0-24.216,0-20.4,0-20.4c0-0.264,0.072-0.576,0.192-0.888
				C153.671,42.792,155.808,41.425,157.824,41.449z M155.543,47.641c-0.984,0-1.776-0.36-2.232-0.912v12.768h0.048
				c0,0,1.248-0.12,2.448-0.936c0.816-0.552,2.184-2.064,3-4.512c0.48-1.344,0.6-2.664,0.48-3.528
				c-0.216-1.56-0.408-2.376-1.056-3.648C157.392,47.4,156.527,47.665,155.543,47.641z"/>
		</g>
		<g>
			<path d="M123.418,32.33c0.984,0,1.776,0.36,2.232,0.912V14.018h0.456v20.4c0,0.336-0.048,0.672-0.168,1.056
				c-0.648,1.704-2.784,3.072-4.8,3.048c-2.016-0.024-3.144-1.44-2.52-3.144S121.402,32.306,123.418,32.33z"/>
		</g>
		<g>
			<path d="M156.799,28.449c1.008,0.024,1.776,0.36,2.232,0.912V10.017h0.456c0,1.176,0.552,2.568,1.248,3.552
				c0.792,1.08,1.752,2.352,2.688,3.888c0.792,1.344,1.44,3.456,1.56,4.416c0.144,0.984,0.216,1.968,0.192,2.928
				c-0.024,1.44-0.24,2.808-0.72,4.08l-0.288-0.144c0.432-1.08,0.648-2.664,0.648-4.032c0-1.128-0.192-2.64-0.6-3.792
				c-0.72-2.136-1.92-3.384-2.616-3.864c-1.08-0.696-2.112-0.744-2.112-0.744v14.16c0.024,0.36-0.024,0.744-0.168,1.128
				c-0.624,1.704-2.784,3.072-4.8,3.048s-3.144-1.416-2.496-3.144C152.647,29.792,154.784,28.425,156.799,28.449z"/>
		</g>
		<g>
			<path d="M79.351,21.955c0,0.216,0,1.536,0,1.536c0.912-0.816,1.416-0.984,2.424-1.008c1.2-0.024,1.968,1.176,1.992,2.136
				c0.024,0.504-0.12,1.032-0.312,1.44c-0.216,0.528-0.792,0.936-1.176,1.32c-0.432,0.432-3.552,2.568-3.552,2.616V15.811h0.624
				C79.351,15.811,79.375,18.787,79.351,21.955z M79.615,24.331c-0.312,0.6-0.264,1.632-0.264,2.376v2.064
				c0,0.024,0.864-0.72,1.344-1.176c0.432-0.408,0.768-0.864,0.936-1.584c0.192-0.72,0.12-1.488-0.336-1.992
				C80.982,23.659,80.119,23.371,79.615,24.331z"/>
		</g>
		<g>
			<path fill="none" stroke="#000000" d="M138.901,95.983l2.958,2.637"/>
			<path fill="none" stroke="#000000" stroke-width="4" d="M138.188,104.626l4.538-5.852"/>
			<path fill="none" stroke="#000000" d="M137.851,103.952l5.313,3.841"/>
			<path fill="none" stroke="#000000" d="M141.021,112.983l-2.493-3.285"/>
			<g>
				<g>
					<path fill="none" d="M142.966,108.033c-1.479-0.457-3.168-0.31-4.22,1.15"/>
					<path d="M143.311,107.103c-2.035-0.583-4.035-0.217-5.377,1.512c-0.786,1.013,0.843,2.146,1.626,1.138
						c0.762-0.981,1.923-1.114,3.063-0.788C143.847,109.314,144.541,107.455,143.311,107.103z"/>
				</g>
			</g>
		</g>
		<path fill="none" stroke="#000000" d="M148.727,44.774h14"/>
		<g>
			<path fill="none" stroke="#000000" d="M115.957,45.046h14"/>
			<path fill="none" stroke="#000000" d="M115.957,52.046h14"/>
		</g>
		<path fill="none" stroke="#000000" stroke-width="2" d="M65.928,96.801v14"/>
		<path fill="none" stroke="#000000" stroke-width="2" d="M69.928,96.801v14"/>
		<g>
			<path fill="none" stroke="#000000" d="M205.057,62.274v27.536"/>
			<path fill="none" stroke="#000000" d="M198.941,87.622l8,6"/>
			<path fill="none" stroke="#000000" d="M206.941,87.622l-8,6"/>
		</g>
		<g>
			<path fill="none" stroke="#000000" d="M116.825,146.622v-27.536"/>
			<path fill="none" stroke="#000000" d="M122.941,121.274l-8-6"/>
			<path fill="none" stroke="#000000" d="M114.941,121.274l8-6"/>
		</g>
		<g>
			<path d="M6.564,33.879c-0.372,0.192-1.152,0.384-2.136,0.384c-2.28,0-3.984-1.44-3.984-4.104c0-2.544,1.716-4.248,4.224-4.248
				c0.996,0,1.644,0.216,1.92,0.36l-0.264,0.852c-0.384-0.192-0.948-0.336-1.62-0.336c-1.896,0-3.156,1.212-3.156,3.336
				c0,1.992,1.14,3.252,3.096,3.252c0.648,0,1.296-0.132,1.716-0.336L6.564,33.879z"/>
			<path d="M7.812,25.611h1.056v8.52H7.812V25.611z"/>
			<path d="M14.712,32.739c0,0.504,0.024,0.996,0.084,1.392h-0.948l-0.096-0.732h-0.036c-0.312,0.456-0.948,0.864-1.776,0.864
				c-1.176,0-1.776-0.828-1.776-1.668c0-1.404,1.248-2.172,3.492-2.16v-0.12c0-0.48-0.132-1.356-1.32-1.344
				c-0.552,0-1.116,0.156-1.524,0.432l-0.24-0.708c0.48-0.3,1.188-0.504,1.92-0.504c1.788,0,2.22,1.212,2.22,2.376V32.739z
				 M13.68,31.167c-1.152-0.024-2.46,0.18-2.46,1.308c0,0.696,0.456,1.008,0.984,1.008c0.768,0,1.26-0.48,1.428-0.972
				c0.036-0.108,0.048-0.228,0.048-0.336V31.167z"/>
			<path d="M16.416,30.135c0-0.684-0.012-1.272-0.048-1.812h0.924l0.048,1.14h0.036c0.264-0.78,0.912-1.272,1.62-1.272
				c0.108,0,0.192,0.012,0.288,0.036v0.984c-0.12-0.012-0.228-0.024-0.372-0.024c-0.744,0-1.272,0.564-1.416,1.344
				c-0.024,0.156-0.036,0.324-0.036,0.504v3.096h-1.056L16.416,30.135z"/>
			<path d="M20.88,27.255c-0.396,0-0.66-0.312-0.66-0.684s0.276-0.672,0.684-0.672c0.408,0,0.672,0.3,0.672,0.672
				s-0.264,0.684-0.684,0.684H20.88z M20.376,34.131v-5.808h1.056v5.808H20.376z"/>
			<path d="M23.184,29.896c0-0.612-0.012-1.092-0.048-1.572h0.936l0.06,0.948h0.024c0.288-0.54,0.96-1.08,1.92-1.08
				c0.804,0,2.052,0.48,2.052,2.472v3.468h-1.056v-3.348c0-0.936-0.348-1.728-1.344-1.728c-0.684,0-1.224,0.492-1.416,1.08
				c-0.048,0.132-0.072,0.324-0.072,0.492v3.504h-1.056V29.896z"/>
			<path d="M30.444,31.407c0.024,1.428,0.924,2.016,1.98,2.016c0.756,0,1.224-0.132,1.608-0.288l0.192,0.744
				c-0.372,0.168-1.02,0.372-1.944,0.372c-1.776,0-2.856-1.188-2.856-2.928c0-1.764,1.044-3.144,2.736-3.144
				c1.896,0,2.388,1.668,2.388,2.736c0,0.216-0.012,0.384-0.036,0.504L30.444,31.407z M33.528,30.651
				c0.012-0.66-0.276-1.716-1.452-1.716c-1.08,0-1.536,0.984-1.62,1.716H33.528z"/>
			<path d="M37.128,26.931v1.392h1.512v0.804h-1.512v3.132c0,0.72,0.204,1.128,0.792,1.128c0.288,0,0.456-0.024,0.612-0.072
				l0.048,0.804c-0.204,0.072-0.528,0.144-0.936,0.144c-0.492,0-0.888-0.168-1.14-0.444c-0.288-0.324-0.408-0.84-0.408-1.524v-3.168
				h-0.9v-0.804h0.9v-1.068L37.128,26.931z"/>
			<path d="M39.684,33.063c0.324,0.192,0.876,0.408,1.404,0.408c0.756,0,1.116-0.372,1.116-0.864c0-0.504-0.3-0.78-1.068-1.068
				c-1.056-0.384-1.548-0.948-1.548-1.644c0-0.936,0.768-1.704,2.004-1.704c0.588,0,1.104,0.156,1.416,0.36l-0.252,0.756
				c-0.228-0.132-0.648-0.336-1.188-0.336c-0.624,0-0.96,0.36-0.96,0.792c0,0.492,0.336,0.708,1.092,0.996
				c0.996,0.372,1.524,0.876,1.524,1.752c0,1.032-0.804,1.752-2.16,1.752c-0.636,0-1.224-0.168-1.632-0.408L39.684,33.063z"/>
			<path d="M2.46,84.931H0v-0.888h5.988v0.888H3.516v7.2H2.46V84.931z"/>
			<path d="M6.324,88.135c0-0.684-0.012-1.272-0.048-1.812H7.2l0.048,1.14h0.036c0.264-0.78,0.912-1.272,1.62-1.272
				c0.108,0,0.192,0.012,0.288,0.036v0.984c-0.12-0.012-0.228-0.024-0.372-0.024c-0.744,0-1.272,0.564-1.416,1.344
				c-0.024,0.156-0.036,0.324-0.036,0.504v3.096H6.312L6.324,88.135z"/>
			<path d="M10.788,85.255c-0.396,0-0.66-0.312-0.66-0.684s0.276-0.672,0.684-0.672c0.408,0,0.672,0.3,0.672,0.672
				s-0.264,0.684-0.684,0.684H10.788z M10.284,92.131v-5.808h1.056v5.808H10.284z"/>
			<path d="M17.184,90.739c0,0.504,0.024,0.996,0.084,1.392H16.32l-0.096-0.732h-0.036c-0.312,0.456-0.948,0.864-1.776,0.864
				c-1.176,0-1.776-0.828-1.776-1.668c0-1.404,1.248-2.172,3.492-2.16v-0.12c0-0.48-0.132-1.356-1.32-1.344
				c-0.552,0-1.116,0.156-1.524,0.432l-0.24-0.708c0.48-0.3,1.188-0.504,1.92-0.504c1.788,0,2.22,1.212,2.22,2.376V90.739z
				 M16.152,89.167c-1.152-0.024-2.46,0.18-2.46,1.308c0,0.696,0.456,1.008,0.984,1.008c0.768,0,1.26-0.48,1.428-0.972
				c0.036-0.108,0.048-0.228,0.048-0.336V89.167z"/>
			<path d="M18.876,87.896c0-0.612-0.012-1.092-0.048-1.572h0.936l0.06,0.948h0.024c0.288-0.54,0.96-1.08,1.92-1.08
				c0.804,0,2.052,0.48,2.052,2.472v3.468h-1.056v-3.348c0-0.936-0.348-1.728-1.344-1.728c-0.684,0-1.224,0.492-1.416,1.08
				c-0.048,0.132-0.072,0.324-0.072,0.492v3.504h-1.056V87.896z"/>
			<path d="M30.504,91.279c0,1.344-0.276,2.148-0.828,2.664c-0.576,0.516-1.392,0.696-2.124,0.696c-0.696,0-1.464-0.168-1.932-0.48
				l0.264-0.816c0.384,0.252,0.984,0.468,1.704,0.468c1.08,0,1.872-0.564,1.872-2.04v-0.636h-0.024
				c-0.312,0.54-0.948,0.972-1.848,0.972c-1.44,0-2.472-1.224-2.472-2.844c0-1.968,1.284-3.072,2.628-3.072
				c1.008,0,1.548,0.516,1.812,0.996h0.024l0.036-0.864h0.936c-0.036,0.408-0.048,0.876-0.048,1.584V91.279z M29.448,88.604
				c0-0.168-0.012-0.324-0.06-0.468c-0.192-0.624-0.696-1.128-1.476-1.128c-1.008,0-1.728,0.852-1.728,2.208
				c0,1.128,0.588,2.088,1.716,2.088c0.66,0,1.248-0.408,1.464-1.092c0.06-0.168,0.084-0.372,0.084-0.564V88.604z"/>
			<path d="M32.244,83.611H33.3v8.52h-1.056V83.611z"/>
			<path d="M35.652,89.407c0.024,1.428,0.924,2.016,1.98,2.016c0.756,0,1.224-0.132,1.608-0.288l0.192,0.744
				c-0.372,0.168-1.02,0.372-1.944,0.372c-1.776,0-2.856-1.188-2.856-2.928c0-1.764,1.044-3.144,2.736-3.144
				c1.896,0,2.388,1.668,2.388,2.736c0,0.216-0.012,0.384-0.036,0.504L35.652,89.407z M38.736,88.651
				c0.012-0.66-0.276-1.716-1.452-1.716c-1.08,0-1.536,0.984-1.62,1.716H38.736z"/>
			<path d="M6.564,106.379c-0.372,0.192-1.152,0.384-2.136,0.384c-2.28,0-3.984-1.44-3.984-4.104c0-2.544,1.716-4.248,4.224-4.248
				c0.996,0,1.644,0.216,1.92,0.36l-0.264,0.852c-0.384-0.192-0.948-0.336-1.62-0.336c-1.896,0-3.156,1.212-3.156,3.336
				c0,1.992,1.14,3.252,3.096,3.252c0.648,0,1.296-0.132,1.716-0.336L6.564,106.379z"/>
			<path d="M7.992,100.823l1.26,3.432c0.144,0.384,0.288,0.84,0.384,1.188H9.66c0.108-0.348,0.228-0.792,0.372-1.212l1.152-3.408
				H12.3l-1.584,4.14c-0.756,1.992-1.272,3.012-1.992,3.648c-0.528,0.444-1.032,0.624-1.296,0.672l-0.264-0.888
				c0.264-0.072,0.612-0.24,0.924-0.516c0.288-0.228,0.636-0.636,0.888-1.176c0.048-0.108,0.084-0.18,0.084-0.252
				c0-0.06-0.024-0.144-0.084-0.264l-2.136-5.364H7.992z"/>
			<path d="M13.26,102.396c0-0.612-0.024-1.092-0.048-1.572h0.924l0.048,0.936h0.036c0.324-0.552,0.864-1.068,1.836-1.068
				c0.78,0,1.38,0.48,1.632,1.164h0.024c0.18-0.336,0.42-0.576,0.66-0.756c0.348-0.264,0.72-0.408,1.272-0.408
				c0.78,0,1.92,0.504,1.92,2.52v3.42h-1.032v-3.288c0-1.128-0.42-1.788-1.26-1.788c-0.612,0-1.068,0.444-1.26,0.948
				c-0.048,0.156-0.084,0.348-0.084,0.528v3.6h-1.032v-3.48c0-0.936-0.408-1.596-1.212-1.596c-0.648,0-1.14,0.528-1.308,1.056
				c-0.06,0.156-0.084,0.336-0.084,0.516v3.504H13.26V102.396z"/>
			<path d="M23.268,98.111h1.056v3.636h0.024c0.372-0.648,1.044-1.056,1.98-1.056c1.44,0,2.448,1.2,2.448,2.952
				c0,2.088-1.32,3.12-2.616,3.12c-0.84,0-1.5-0.324-1.944-1.092h-0.024l-0.06,0.96H23.22c0.036-0.396,0.048-0.984,0.048-1.5V98.111
				z M24.324,104.303c0,0.132,0.012,0.264,0.036,0.384c0.204,0.732,0.828,1.236,1.584,1.236c1.116,0,1.764-0.9,1.764-2.232
				c0-1.176-0.6-2.172-1.728-2.172c-0.72,0-1.392,0.504-1.596,1.296c-0.036,0.132-0.06,0.276-0.06,0.444V104.303z"/>
			<path d="M34.188,105.239c0,0.504,0.024,0.996,0.084,1.392h-0.948l-0.096-0.732h-0.036c-0.312,0.456-0.948,0.864-1.776,0.864
				c-1.176,0-1.776-0.828-1.776-1.668c0-1.404,1.248-2.172,3.492-2.16v-0.12c0-0.48-0.132-1.356-1.32-1.344
				c-0.552,0-1.116,0.156-1.524,0.432l-0.24-0.708c0.48-0.3,1.188-0.504,1.92-0.504c1.788,0,2.22,1.212,2.22,2.376V105.239z
				 M33.156,103.667c-1.152-0.024-2.46,0.18-2.46,1.308c0,0.696,0.456,1.008,0.984,1.008c0.768,0,1.26-0.48,1.428-0.972
				c0.036-0.108,0.048-0.228,0.048-0.336V103.667z"/>
			<path d="M35.88,98.111h1.056v8.52H35.88V98.111z"/>
			<path d="M7.092,120.771c-0.468,0.18-1.404,0.444-2.496,0.444c-1.224,0-2.232-0.312-3.024-1.068
				c-0.696-0.672-1.128-1.752-1.128-3.012c0-2.412,1.668-4.176,4.38-4.176c0.936,0,1.68,0.204,2.028,0.372l-0.264,0.852
				c-0.432-0.204-0.972-0.348-1.788-0.348c-1.968,0-3.252,1.224-3.252,3.252c0,2.052,1.224,3.264,3.12,3.264
				c0.684,0,1.152-0.096,1.392-0.216v-2.412H4.428v-0.84h2.664V120.771z"/>
			<path d="M11.076,121.263c-1.56,0-2.784-1.152-2.784-2.988c0-1.944,1.284-3.084,2.88-3.084c1.668,0,2.796,1.212,2.796,2.976
				c0,2.16-1.5,3.096-2.88,3.096H11.076z M11.112,120.471c1.008,0,1.764-0.948,1.764-2.268c0-0.984-0.492-2.22-1.74-2.22
				c-1.236,0-1.776,1.152-1.776,2.256c0,1.272,0.72,2.232,1.74,2.232H11.112z"/>
			<path d="M15.3,116.896c0-0.612-0.012-1.092-0.048-1.572h0.936l0.06,0.948h0.024c0.288-0.54,0.96-1.08,1.92-1.08
				c0.804,0,2.052,0.48,2.052,2.472v3.468h-1.056v-3.348c0-0.936-0.348-1.728-1.344-1.728c-0.684,0-1.224,0.492-1.416,1.08
				c-0.048,0.132-0.072,0.324-0.072,0.492v3.504H15.3V116.896z"/>
			<path d="M26.928,120.279c0,1.344-0.276,2.148-0.828,2.664c-0.576,0.516-1.392,0.696-2.124,0.696c-0.696,0-1.464-0.168-1.932-0.48
				l0.264-0.816c0.384,0.252,0.984,0.468,1.704,0.468c1.08,0,1.872-0.564,1.872-2.04v-0.636H25.86
				c-0.312,0.54-0.948,0.972-1.848,0.972c-1.44,0-2.472-1.224-2.472-2.844c0-1.968,1.284-3.072,2.628-3.072
				c1.008,0,1.548,0.516,1.812,0.996h0.024l0.036-0.864h0.936c-0.036,0.408-0.048,0.876-0.048,1.584V120.279z M25.872,117.604
				c0-0.168-0.012-0.324-0.06-0.468c-0.192-0.624-0.696-1.128-1.476-1.128c-1.008,0-1.728,0.852-1.728,2.208
				c0,1.128,0.588,2.088,1.716,2.088c0.66,0,1.248-0.408,1.464-1.092c0.06-0.168,0.084-0.372,0.084-0.564V117.604z"/>
		</g>
		<path fill="none" stroke="#000000" d="M48.053,90.521h425.028"/>
		<path fill="none" stroke="#000000" d="M48.053,104.632h425.028"/>
		<path fill="none" stroke="#000000" d="M47.941,119.139h425.028"/>
		<g>
			<path d="M180.418,25.33c0.984,0,1.776,0.36,2.232,0.912V7.018h0.456v20.4c0,0.336-0.048,0.672-0.168,1.056
				c-0.648,1.704-2.784,3.072-4.8,3.048c-2.016-0.024-3.144-1.44-2.52-3.144S178.402,25.306,180.418,25.33z"/>
		</g>
		<g>
			<path d="M204.418,29.33c0.984,0,1.776,0.36,2.232,0.912V11.018h0.456v20.4c0,0.336-0.048,0.672-0.168,1.056
				c-0.648,1.704-2.784,3.072-4.8,3.048c-2.016-0.024-3.144-1.44-2.52-3.144S202.402,29.306,204.418,29.33z"/>
		</g>
		<path fill="none" stroke="#0A0A0A" d="M217.583,9.774v109"/>
		<g>
			<path d="M102.759,22.398c0,0.96-1.2,1.8-1.848,1.8s-2.04-0.36-2.04-1.8c0-0.936,0.672-1.632,1.512-1.632
				c0.576,0,0.528-0.36,0.336-0.576c-0.528-0.552-1.488-0.96-2.664-0.624c-1.896,0.504-2.304,2.808-2.304,5.184
				c0,2.64,0.456,5.256,2.76,5.256c1.632,0,3.456-1.488,3.408-3.528h0.672c-0.024,0.624-0.432,1.92-0.84,2.424
				c-0.816,1.008-2.328,1.848-3.504,1.848c-3.168,0-5.424-2.856-5.424-6c0-3.072,2.112-5.904,5.184-5.904
				C100.599,18.846,102.759,20.07,102.759,22.398z"/>
		</g>
		<g>
			<path d="M103.759,101.398c0,0.96-1.2,1.8-1.848,1.8s-2.04-0.36-2.04-1.8c0-0.936,0.672-1.632,1.512-1.632
				c0.576,0,0.528-0.36,0.336-0.576c-0.528-0.552-1.488-0.96-2.664-0.624c-1.896,0.504-2.304,2.808-2.304,5.184
				c0,2.64,0.456,5.256,2.76,5.256c1.632,0,3.456-1.488,3.408-3.528h0.672c-0.024,0.624-0.432,1.92-0.84,2.424
				c-0.816,1.008-2.328,1.848-3.504,1.848c-3.168,0-5.424-2.856-5.424-6c0-3.072,2.112-5.904,5.184-5.904
				C101.599,97.846,103.759,99.07,103.759,101.398z"/>
		</g>
		<g>
			<path d="M133.347,51.555c-0.713,0-1.217-0.536-1.217-1.25s0.524-1.25,1.259-1.25s1.238,0.516,1.238,1.25
				c0,0.714-0.503,1.25-1.259,1.25H133.347z"/>
		</g>
		<path fill="none" stroke="#0A0A0A" d="M351.584,9.774v109"/>
		<g>
			<path d="M180.824,32.473c2.04,0.024,3.144,1.416,2.52,3.12c-0.624,1.728-2.784,3.096-4.8,3.072
				c-0.984-0.024-1.776-0.384-2.232-0.936v19.08h-0.456c0-24.216,0-20.4,0-20.4c0-0.288,0.072-0.576,0.192-0.888
				C176.671,33.792,178.808,32.449,180.824,32.473z"/>
		</g>
		<g>
			<path fill="none" stroke="#000000" d="M174.825,132.622v-27.536"/>
			<path fill="none" stroke="#000000" d="M180.941,107.274l-8-6"/>
			<path fill="none" stroke="#000000" d="M172.941,107.274l8-6"/>
		</g>
		<g>
			<path d="M239.824,48.473c2.04,0.024,3.144,1.416,2.52,3.12c-0.624,1.728-2.784,3.096-4.8,3.072
				c-0.984-0.024-1.776-0.384-2.232-0.936v19.08h-0.456c0-24.216,0-20.4,0-20.4c0-0.288,0.072-0.576,0.192-0.888
				C235.671,49.792,237.808,48.449,239.824,48.473z"/>
		</g>
		<g>
			<path d="M238.418,32.33c0.984,0,1.776,0.36,2.232,0.912V14.018h0.456v20.4c0,0.336-0.048,0.672-0.168,1.056
				c-0.648,1.704-2.784,3.072-4.8,3.048c-2.016-0.024-3.144-1.44-2.52-3.144S236.402,32.306,238.418,32.33z"/>
		</g>
		<g>
			<path fill="none" stroke="#000000" d="M253.901,95.983l2.958,2.637"/>
			<path fill="none" stroke="#000000" stroke-width="4" d="M253.188,104.626l4.538-5.852"/>
			<path fill="none" stroke="#000000" d="M252.851,103.952l5.313,3.841"/>
			<path fill="none" stroke="#000000" d="M256.021,112.983l-2.493-3.285"/>
			<g>
				<g>
					<path fill="none" d="M257.966,108.033c-1.479-0.457-3.168-0.31-4.22,1.15"/>
					<path d="M258.311,107.103c-2.035-0.583-4.035-0.217-5.377,1.512c-0.786,1.013,0.843,2.146,1.626,1.138
						c0.762-0.981,1.923-1.114,3.063-0.788C258.847,109.314,259.541,107.455,258.311,107.103z"/>
				</g>
			</g>
		</g>
		<path fill="none" stroke="#000000" d="M267.727,44.774h14"/>
		<g>
			<path fill="none" stroke="#000000" d="M230.957,45.046h14"/>
			<path fill="none" stroke="#000000" d="M230.957,52.046h14"/>
		</g>
		<g>
			<path fill="none" stroke="#000000" d="M331.057,62.274v27.536"/>
			<path fill="none" stroke="#000000" d="M324.941,87.622l8,6"/>
			<path fill="none" stroke="#000000" d="M332.941,87.622l-8,6"/>
		</g>
		<g>
			<path fill="none" stroke="#000000" d="M231.825,146.622v-27.536"/>
			<path fill="none" stroke="#000000" d="M237.941,121.274l-8-6"/>
			<path fill="none" stroke="#000000" d="M229.941,121.274l8-6"/>
		</g>
		<g>
			<path d="M295.419,25.33c0.983,0,1.775,0.36,2.231,0.912V7.018h0.456v20.4c0,0.336-0.048,0.672-0.168,1.056
				c-0.648,1.704-2.784,3.072-4.8,3.048c-2.017-0.024-3.145-1.44-2.521-3.144S293.402,25.306,295.419,25.33z"/>
		</g>
		<g>
			<path d="M330.419,28.33c0.983,0,1.775,0.36,2.231,0.912V10.018h0.456v20.4c0,0.336-0.048,0.672-0.168,1.056
				c-0.648,1.704-2.784,3.072-4.8,3.048c-2.017-0.024-3.145-1.44-2.521-3.144S328.402,28.306,330.419,28.33z"/>
		</g>
		<g>
			<path d="M295.823,32.473c2.04,0.024,3.145,1.416,2.521,3.12c-0.624,1.728-2.784,3.096-4.8,3.072
				c-0.984-0.024-1.776-0.384-2.232-0.936v19.08h-0.456c0-24.216,0-20.4,0-20.4c0-0.288,0.072-0.576,0.192-0.888
				C291.672,33.792,293.808,32.449,295.823,32.473z"/>
		</g>
		<g>
			<path fill="none" stroke="#000000" d="M289.824,132.622v-27.536"/>
			<path fill="none" stroke="#000000" d="M295.941,107.274l-8-6"/>
			<path fill="none" stroke="#000000" d="M287.941,107.274l8-6"/>
		</g>
		<g>
			<path d="M372.91,30.537c-0.713,0-1.217-0.536-1.217-1.25s0.524-1.25,1.259-1.25s1.237,0.516,1.237,1.25
				c0,0.714-0.503,1.25-1.258,1.25H372.91z"/>
		</g>
		<g>
			<path d="M366.387,32.455c2.04,0.024,3.145,1.416,2.521,3.12c-0.624,1.728-2.784,3.096-4.8,3.072
				c-0.984-0.024-1.776-0.384-2.232-0.936v19.08h-0.456c0-24.216,0-20.4,0-20.4c0-0.288,0.072-0.576,0.192-0.888
				C362.235,33.774,364.371,32.431,366.387,32.455z"/>
		</g>
		<g>
			<path d="M400.387,29.431c2.04,0.024,3.168,1.44,2.521,3.144c-0.288,0.816-0.937,1.536-1.729,2.088
				c0.816,1.824,1.345,3.744,1.008,6.168c-0.191,1.272-0.6,2.736-1.584,4.368c-1.031,1.728-2.111,3.36-3.048,4.68
				c-0.815,1.128-1.632,2.64-1.632,3.984h-0.456v-0.096h-0.048c0-24.216,0-20.4,0-20.4c0-0.264,0.072-0.576,0.192-0.888
				C396.235,30.774,398.371,29.407,400.387,29.431z M398.107,35.623c-0.984,0-1.776-0.36-2.232-0.912v12.768h0.048
				c0,0,1.248-0.12,2.448-0.936c0.815-0.552,2.184-2.064,3-4.512c0.479-1.344,0.6-2.664,0.479-3.528
				c-0.216-1.56-0.407-2.376-1.056-3.648C399.955,35.382,399.091,35.646,398.107,35.623z"/>
		</g>
		<g>
			<path d="M365.982,25.312c0.983,0,1.775,0.36,2.231,0.912V7h0.456v20.4c0,0.336-0.048,0.672-0.168,1.056
				c-0.648,1.704-2.784,3.072-4.8,3.048c-2.017-0.024-3.145-1.44-2.521-3.144S363.966,25.288,365.982,25.312z"/>
		</g>
		<g>
			<path d="M399.363,21.431c1.008,0.024,1.775,0.36,2.231,0.912V2.999h0.456c0,1.176,0.552,2.568,1.248,3.552
				c0.792,1.08,1.752,2.352,2.688,3.888c0.792,1.344,1.439,3.456,1.56,4.416c0.145,0.984,0.216,1.968,0.192,2.928
				c-0.024,1.44-0.24,2.808-0.721,4.08l-0.287-0.144c0.432-1.08,0.647-2.664,0.647-4.032c0-1.128-0.191-2.64-0.6-3.792
				c-0.721-2.136-1.92-3.384-2.616-3.864c-1.08-0.696-2.112-0.744-2.112-0.744v14.16c0.024,0.36-0.023,0.744-0.168,1.128
				c-0.624,1.704-2.784,3.072-4.8,3.048s-3.145-1.416-2.496-3.144C395.211,22.774,397.347,21.407,399.363,21.431z"/>
		</g>
		<g>
			<path fill="none" stroke="#000000" d="M384.465,95.965l2.957,2.637"/>
			<path fill="none" stroke="#000000" stroke-width="4" d="M383.752,104.608l4.538-5.852"/>
			<path fill="none" stroke="#000000" d="M383.414,103.934l5.313,3.841"/>
			<path fill="none" stroke="#000000" d="M386.584,112.965l-2.492-3.285"/>
			<g>
				<g>
					<path fill="none" d="M388.529,108.015c-1.479-0.457-3.168-0.31-4.22,1.15"/>
					<path d="M388.874,107.084c-2.035-0.583-4.035-0.217-5.378,1.512c-0.785,1.013,0.844,2.146,1.627,1.138
						c0.762-0.981,1.923-1.114,3.063-0.788C389.41,109.296,390.104,107.437,388.874,107.084z"/>
				</g>
			</g>
		</g>
		<g>
			<path fill="none" stroke="#000000" d="M451.621,62.256v27.536"/>
			<path fill="none" stroke="#000000" d="M445.504,87.604l8,6"/>
			<path fill="none" stroke="#000000" d="M453.504,87.604l-8,6"/>
		</g>
		<g>
			<path fill="none" stroke="#000000" d="M363.389,146.604v-27.536"/>
			<path fill="none" stroke="#000000" d="M369.504,121.256l-8-6"/>
			<path fill="none" stroke="#000000" d="M361.504,121.256l8-6"/>
		</g>
		<g>
			<path d="M426.982,18.312c0.983,0,1.775,0.36,2.231,0.912V0h0.456v20.4c0,0.336-0.048,0.672-0.168,1.056
				c-0.648,1.704-2.784,3.072-4.8,3.048c-2.017-0.024-3.145-1.44-2.521-3.144S424.966,18.288,426.982,18.312z"/>
		</g>
		<g>
			<path d="M450.982,21.312c0.983,0,1.775,0.36,2.231,0.912V3h0.456v20.4c0,0.336-0.048,0.672-0.168,1.056
				c-0.648,1.704-2.784,3.072-4.8,3.048c-2.017-0.024-3.145-1.44-2.521-3.144S448.966,21.288,450.982,21.312z"/>
		</g>
		<g>
			<path d="M372.91,37.537c-0.713,0-1.217-0.536-1.217-1.25s0.524-1.25,1.259-1.25s1.237,0.516,1.237,1.25
				c0,0.714-0.503,1.25-1.258,1.25H372.91z"/>
		</g>
		<g>
			<path d="M427.387,25.455c2.04,0.024,3.145,1.416,2.521,3.12c-0.624,1.728-2.784,3.096-4.8,3.072
				c-0.984-0.024-1.776-0.384-2.232-0.936v19.08h-0.456c0-24.216,0-20.4,0-20.4c0-0.288,0.072-0.576,0.192-0.888
				C423.235,26.774,425.371,25.431,427.387,25.455z"/>
		</g>
		<g>
			<path fill="none" stroke="#000000" d="M426.389,132.604v-27.536"/>
			<path fill="none" stroke="#000000" d="M432.504,107.256l-8-6"/>
			<path fill="none" stroke="#000000" d="M424.504,107.256l8-6"/>
		</g>
		<path fill="none" stroke="#0A0A0A" d="M474.584,10.678v109.096"/>
		<g>
			<path d="M204.824,42.473c2.04,0.024,3.144,1.416,2.52,3.12c-0.624,1.728-2.784,3.096-4.8,3.072
				c-0.984-0.024-1.776-0.384-2.232-0.936v19.08h-0.456c0-24.216,0-20.4,0-20.4c0-0.288,0.072-0.576,0.192-0.888
				C200.671,43.792,202.808,42.449,204.824,42.473z"/>
		</g>
		<path fill="none" stroke="#000000" d="M196.727,45.774h14"/>
		<g>
			<path d="M260.824,48.473c2.04,0.024,3.144,1.416,2.52,3.12c-0.624,1.728-2.784,3.096-4.8,3.072
				c-0.984-0.024-1.776-0.384-2.232-0.936v19.08h-0.456c0-24.216,0-20.4,0-20.4c0-0.288,0.072-0.576,0.192-0.888
				C256.671,49.792,258.808,48.449,260.824,48.473z"/>
		</g>
		<g>
			<path d="M259.418,32.33c0.984,0,1.776,0.36,2.232,0.912V14.018h0.456v20.4c0,0.336-0.048,0.672-0.168,1.056
				c-0.648,1.704-2.784,3.072-4.8,3.048c-2.016-0.024-3.144-1.44-2.52-3.144S257.402,32.306,259.418,32.33z"/>
		</g>
		<g>
			<path fill="none" stroke="#000000" d="M251.957,45.046h14"/>
			<path fill="none" stroke="#000000" d="M251.957,52.046h14"/>
		</g>
		<g>
			<path d="M276.824,41.473c2.04,0.024,3.144,1.416,2.52,3.12c-0.624,1.728-2.784,3.096-4.8,3.072
				c-0.984-0.024-1.776-0.384-2.232-0.936v19.08h-0.456c0-24.216,0-20.4,0-20.4c0-0.288,0.072-0.576,0.192-0.888
				C272.671,42.792,274.808,41.449,276.824,41.473z"/>
		</g>
		<g>
			<path d="M276.418,28.33c0.984,0,1.776,0.36,2.232,0.912V10.018h0.456v20.4c0,0.336-0.048,0.672-0.168,1.056
				c-0.648,1.704-2.784,3.072-4.8,3.048c-2.016-0.024-3.144-1.44-2.52-3.144S274.402,28.306,276.418,28.33z"/>
		</g>
		<path fill="none" stroke="#000000" d="M262.727,13.774l17-4"/>
		<path fill="none" stroke="#000000" d="M255.727,71.774l17-4"/>
		<g>
			<path d="M450.823,28.473c2.04,0.024,3.145,1.416,2.521,3.12c-0.624,1.728-2.784,3.096-4.8,3.072
				c-0.984-0.024-1.776-0.384-2.232-0.936v19.08h-0.456c0-24.216,0-20.4,0-20.4c0-0.288,0.072-0.576,0.192-0.888
				C446.672,29.792,448.808,28.449,450.823,28.473z"/>
		</g>
		<g>
			<path d="M312.419,25.33c0.983,0,1.775,0.36,2.231,0.912V7.018h0.456v20.4c0,0.336-0.048,0.672-0.168,1.056
				c-0.648,1.704-2.784,3.072-4.8,3.048c-2.017-0.024-3.145-1.44-2.521-3.144S310.402,25.306,312.419,25.33z"/>
		</g>
		<g>
			<path d="M312.823,32.473c2.04,0.024,3.145,1.416,2.521,3.12c-0.624,1.728-2.784,3.096-4.8,3.072
				c-0.984-0.024-1.776-0.384-2.232-0.936v19.08h-0.456c0-24.216,0-20.4,0-20.4c0-0.288,0.072-0.576,0.192-0.888
				C308.672,33.792,310.808,32.449,312.823,32.473z"/>
		</g>
		<g>
			<path d="M330.823,42.473c2.04,0.024,3.145,1.416,2.521,3.12c-0.624,1.728-2.784,3.096-4.8,3.072
				c-0.984-0.024-1.776-0.384-2.232-0.936v19.08h-0.456c0-24.216,0-20.4,0-20.4c0-0.288,0.072-0.576,0.192-0.888
				C326.672,43.792,328.808,42.449,330.823,42.473z"/>
		</g>
		<path fill="none" stroke="#000000" d="M322.727,45.774h14"/>
		<path fill="none" stroke="#000000" d="M297.727,6.774h19"/>
		<path fill="none" stroke="#000000" d="M291.727,56.774h16"/>
	</g>
</svg>
