<?xml version="1.0" encoding="utf-8"?>
<!-- Generator: Adobe Illustrator 10.0, SVG Export Plug-In . SVG Version: 3.0.0 Build 76)  -->
<!DOCTYPE svg PUBLIC "-//W3C//DTD SVG 1.0//EN"    "http://www.w3.org/TR/2001/REC-SVG-20010904/DTD/svg10.dtd" [
	<!ENTITY ns_flows "http://ns.adobe.com/Flows/1.0/">
	<!ENTITY ns_extend "http://ns.adobe.com/Extensibility/1.0/">
	<!ENTITY ns_ai "http://ns.adobe.com/AdobeIllustrator/10.0/">
	<!ENTITY ns_svg "http://www.w3.org/2000/svg">
	<!ENTITY ns_xlink "http://www.w3.org/1999/xlink">
]>
<svg  xmlns:x="&ns_extend;" xmlns:i="&ns_ai;" xmlns:graph="&ns_graphs;"
	 xmlns="&ns_svg;" xmlns:xlink="&ns_xlink;" xmlns:a="http://ns.adobe.com/AdobeSVGViewerExtensions/3.0/" width="367" height="74"
	 viewBox="0.037 -0.071 367 74" overflow="visible" enable-background="new 0.037 -0.071 367 74" xml:space="preserve">
	<g id="Layer_1_2_">
		<g>
			<path d="M88.291,47.023c2.04,0.024,3.168,1.44,2.52,3.144c-0.288,0.816-0.936,1.536-1.728,2.088
				c0.816,1.824,1.344,3.744,1.008,6.168c-0.192,1.272-0.6,2.736-1.584,4.368c-1.032,1.728-2.112,3.36-3.048,4.68
				c-0.816,1.128-1.632,2.64-1.632,3.984h-0.456v-0.096h-0.048c0-24.216,0-20.4,0-20.4c0-0.264,0.072-0.576,0.192-0.888
				C84.139,48.367,86.275,47,88.291,47.023z M86.011,53.215c-0.984,0-1.776-0.36-2.232-0.912v12.768h0.048
				c0,0,1.248-0.12,2.448-0.936c0.816-0.552,2.184-2.064,3-4.512c0.48-1.344,0.6-2.664,0.48-3.528
				c-0.216-1.56-0.408-2.376-1.056-3.648C87.859,52.975,86.995,53.239,86.011,53.215z"/>
		</g>
		<g>
			<path d="M60.696,19.309c1.008,0.024,1.776,0.36,2.232,0.912V0.877h0.456c0,1.176,0.552,2.568,1.248,3.552
				c0.792,1.08,1.752,2.352,2.688,3.888c0.792,1.344,1.44,3.456,1.56,4.416c0.144,0.984,0.216,1.968,0.192,2.928
				c-0.024,1.44-0.24,2.808-0.72,4.08l-0.288-0.144c0.432-1.08,0.648-2.664,0.648-4.032c0-1.128-0.192-2.64-0.6-3.792
				c-0.72-2.136-1.92-3.384-2.616-3.864c-1.08-0.696-2.112-0.744-2.112-0.744v14.16c0.024,0.36-0.024,0.744-0.168,1.128
				c-0.624,1.704-2.784,3.072-4.8,3.048s-3.144-1.416-2.496-3.144C56.544,20.653,58.68,19.285,60.696,19.309z"/>
		</g>
		<g>
			<g>
				<path d="M60.118,47.121c0,0.859-0.391,1.555-0.877,1.555c-0.482,0-0.875-0.696-0.875-1.555c0-0.858,0.393-1.555,0.875-1.555
					C59.727,45.566,60.118,46.263,60.118,47.121z"/>
				<g>
					<g>
						<path fill="none" d="M59.768,46.084c1.752,2.073,3.154,2.073,4.559-0.518"/>
						<path d="M59.391,46.405c0.703,0.807,1.59,1.694,2.74,1.664c1.248-0.034,2.055-1.247,2.602-2.218
							c0.311-0.553-0.498-1.127-0.813-0.569c-0.379,0.673-0.852,1.56-1.658,1.779c-0.83,0.226-1.654-0.768-2.115-1.297
							C59.727,45.282,58.969,45.922,59.391,46.405z"/>
					</g>
				</g>
				<g>
					<g>
						<path fill="none" d="M59.067,58.006c1.402-4.146,3.506-7.775,4.908-11.922"/>
						<path d="M59.532,58.179c1.43-4.061,3.48-7.861,4.908-11.922c0.213-0.604-0.719-0.948-0.93-0.345
							c-1.428,4.062-3.48,7.861-4.908,11.922C58.389,58.438,59.319,58.782,59.532,58.179z"/>
					</g>
				</g>
			</g>
			<path stroke="#000000" stroke-width="0.5" d="M60.118,47.121c0,0.915-0.66,1.656-1.477,1.656c-0.814,0-1.477-0.742-1.477-1.656
				s0.662-1.656,1.477-1.656C59.458,45.465,60.118,46.207,60.118,47.121z"/>
		</g>
		<g>
			<path d="M0,30.376l1.164-6.12c0.132-0.696,0.252-1.488,0.324-2.076H2.4l-0.156,1.104h0.024c0.516-0.768,1.284-1.224,2.088-1.224
				c1.248,0,1.776,1.032,1.776,2.1c0,2.052-1.464,3.972-3.396,3.972c-0.612,0-1.02-0.132-1.248-0.264H1.464l-0.468,2.508H0z
				 M1.632,27.028c0.264,0.204,0.636,0.324,1.116,0.324c1.284,0,2.352-1.596,2.352-3.12c0-0.612-0.264-1.344-1.116-1.344
				c-0.78,0-1.752,0.888-2.052,2.52L1.632,27.028z"/>
			<path d="M9.216,28.132c-1.452,0-2.268-1.08-2.268-2.388c0-1.92,1.332-3.684,3.216-3.684c1.572,0,2.28,1.188,2.28,2.412
				c0,1.8-1.272,3.66-3.216,3.66H9.216z M9.336,27.34c1.176,0,2.064-1.512,2.064-2.868c0-0.672-0.312-1.62-1.356-1.62
				c-1.248,0-2.076,1.524-2.076,2.856c0,0.948,0.528,1.632,1.356,1.632H9.336z"/>
			<path d="M13.152,28l1.62-8.52h0.996L14.148,28H13.152z"/>
			<path d="M18.228,28.132c-1.452,0-2.268-1.08-2.268-2.388c0-1.92,1.332-3.684,3.216-3.684c1.572,0,2.28,1.188,2.28,2.412
				c0,1.8-1.272,3.66-3.216,3.66H18.228z M18.348,27.34c1.176,0,2.064-1.512,2.064-2.868c0-0.672-0.312-1.62-1.356-1.62
				c-1.248,0-2.076,1.524-2.076,2.856c0,0.948,0.528,1.632,1.356,1.632H18.348z"/>
			<path d="M22.211,27.004c0.264,0.168,0.768,0.36,1.248,0.36c0.672,0,1.104-0.432,1.104-0.948c0-0.456-0.204-0.744-0.816-1.08
				c-0.672-0.372-1.044-0.876-1.044-1.476c0-1.02,0.876-1.8,2.112-1.8c0.516,0,0.984,0.144,1.2,0.288l-0.276,0.756
				c-0.204-0.12-0.564-0.264-0.996-0.264c-0.612,0-1.044,0.384-1.044,0.876c0,0.42,0.276,0.684,0.804,0.972
				c0.648,0.372,1.08,0.876,1.08,1.536c0,1.224-0.984,1.908-2.22,1.908c-0.624-0.012-1.176-0.192-1.44-0.396L22.211,27.004z"/>
			<path d="M0.576,56.004c0.264,0.168,0.768,0.36,1.248,0.36c0.672,0,1.104-0.432,1.104-0.948c0-0.456-0.204-0.744-0.816-1.08
				C1.44,53.964,1.068,53.46,1.068,52.86c0-1.02,0.876-1.8,2.112-1.8c0.516,0,0.984,0.144,1.2,0.288l-0.276,0.756
				C3.9,51.984,3.54,51.84,3.108,51.84c-0.612,0-1.044,0.384-1.044,0.876c0,0.42,0.276,0.684,0.804,0.972
				c0.648,0.372,1.08,0.876,1.08,1.536c0,1.224-0.984,1.908-2.22,1.908c-0.624-0.012-1.176-0.192-1.44-0.396L0.576,56.004z"/>
			<path d="M8.856,57c0-0.348,0.06-0.9,0.132-1.5H8.964c-0.636,1.212-1.44,1.632-2.256,1.632c-1.032,0-1.668-0.816-1.668-1.92
				c0-2.028,1.488-4.152,4.008-4.152c0.552,0,1.164,0.096,1.56,0.216l-0.588,3.036C9.828,55.32,9.756,56.353,9.78,57H8.856z
				 M9.492,51.937c-0.144-0.048-0.348-0.084-0.684-0.084c-1.5,0-2.736,1.56-2.736,3.18c0,0.648,0.228,1.284,0.984,1.284
				c0.84,0,1.824-1.08,2.1-2.628L9.492,51.937z"/>
			<path d="M11.268,57l0.768-4.116c0.132-0.648,0.216-1.212,0.276-1.692h0.9l-0.156,1.14h0.024c0.528-0.816,1.308-1.272,2.16-1.272
				c0.684,0,1.464,0.396,1.464,1.608c0,0.264-0.048,0.636-0.108,0.936L15.948,57h-0.984l0.636-3.36
				c0.036-0.216,0.072-0.492,0.072-0.744c0-0.576-0.228-1.008-0.912-1.008c-0.708,0-1.716,0.852-1.98,2.292L12.252,57H11.268z"/>
			<path d="M17.724,58.32c0.348,0.228,0.936,0.384,1.536,0.384c0.984,0,1.752-0.492,2.088-2.064l0.192-0.876h-0.024
				C21,56.592,20.292,57,19.5,57c-1.176,0-1.776-0.984-1.776-2.016c0-1.98,1.44-3.924,3.684-3.924c0.672,0,1.416,0.192,1.872,0.408
				l-0.9,4.8c-0.228,1.236-0.564,2.076-1.164,2.604c-0.588,0.492-1.368,0.636-2.028,0.636c-0.708,0-1.38-0.168-1.74-0.408
				L17.724,58.32z M22.188,52.057c-0.192-0.096-0.552-0.204-0.96-0.204c-1.452,0-2.46,1.524-2.46,2.964
				c-0.012,0.648,0.228,1.392,1.116,1.392c0.852,0,1.716-1.08,1.932-2.22L22.188,52.057z"/>
			<path d="M24.012,56.004c0.264,0.168,0.768,0.36,1.248,0.36c0.672,0,1.104-0.432,1.104-0.948c0-0.456-0.204-0.744-0.816-1.08
				c-0.672-0.372-1.044-0.876-1.044-1.476c0-1.02,0.876-1.8,2.112-1.8c0.516,0,0.984,0.144,1.2,0.288l-0.276,0.756
				c-0.204-0.12-0.564-0.264-0.996-0.264c-0.612,0-1.044,0.384-1.044,0.876c0,0.42,0.276,0.684,0.804,0.972
				c0.648,0.372,1.08,0.876,1.08,1.536c0,1.224-0.984,1.908-2.22,1.908c-0.624-0.012-1.176-0.192-1.44-0.396L24.012,56.004z"/>
			<path d="M28.428,57l1.104-5.808h0.996L29.423,57H28.428z M30.288,50.125c-0.348,0-0.588-0.276-0.588-0.648
				c0.012-0.396,0.312-0.708,0.684-0.708c0.372,0,0.624,0.276,0.624,0.648c-0.012,0.42-0.312,0.708-0.708,0.708H30.288z"/>
			<path d="M31.175,57l1.62-8.52h0.996l-0.72,3.732h0.024c0.492-0.708,1.2-1.152,2.076-1.152c0.66,0,1.44,0.396,1.44,1.56
				c0,0.3-0.036,0.684-0.096,0.972L35.867,57h-0.996l0.648-3.36c0.036-0.204,0.072-0.48,0.072-0.804c0-0.528-0.252-0.948-0.9-0.948
				c-0.768,0-1.74,0.9-1.98,2.196L32.171,57H31.175z"/>
		</g>
		<g>
			<g>
				<path d="M134.475,51.55c0,0.859-0.391,1.555-0.877,1.555c-0.482,0-0.875-0.696-0.875-1.555c0-0.858,0.393-1.555,0.875-1.555
					C134.084,49.995,134.475,50.691,134.475,51.55z"/>
				<g>
					<g>
						<path fill="none" d="M134.125,50.513c1.751,2.073,3.153,2.073,4.558-0.518"/>
						<path d="M133.746,50.834c0.703,0.807,1.59,1.694,2.741,1.664c1.249-0.034,2.055-1.247,2.602-2.218
							c0.312-0.553-0.498-1.127-0.813-0.569c-0.379,0.673-0.851,1.56-1.657,1.779c-0.832,0.227-1.654-0.768-2.116-1.297
							C134.083,49.711,133.324,50.351,133.746,50.834z"/>
					</g>
				</g>
				<g>
					<g>
						<path fill="none" d="M133.424,62.435c1.402-4.146,3.505-7.775,4.907-11.922"/>
						<path d="M133.889,62.607c1.428-4.061,3.479-7.861,4.907-11.921c0.213-0.604-0.718-0.948-0.93-0.345
							c-1.429,4.061-3.479,7.861-4.908,11.922C132.746,62.867,133.676,63.21,133.889,62.607z"/>
					</g>
				</g>
			</g>
			<path stroke="#000000" stroke-width="0.5" d="M134.475,51.55c0,0.915-0.66,1.656-1.477,1.656c-0.814,0-1.477-0.742-1.477-1.656
				s0.662-1.656,1.477-1.656C133.814,49.894,134.475,50.635,134.475,51.55z"/>
		</g>
		<g>
			<path d="M113.147,47.381c2.04,0.024,3.168,1.44,2.52,3.144c-0.288,0.816-0.936,1.536-1.728,2.088
				c0.816,1.824,1.344,3.744,1.008,6.168c-0.192,1.272-0.6,2.736-1.584,4.368c-1.032,1.728-2.112,3.36-3.048,4.68
				c-0.816,1.128-1.632,2.64-1.632,3.984h-0.456v-0.096h-0.048c0-24.216,0-20.4,0-20.4c0-0.264,0.072-0.576,0.192-0.888
				C108.995,48.725,111.131,47.357,113.147,47.381z M110.867,53.573c-0.984,0-1.776-0.36-2.232-0.912v12.768h0.048
				c0,0,1.248-0.12,2.448-0.936c0.816-0.552,2.184-2.064,3-4.512c0.48-1.344,0.6-2.664,0.48-3.528
				c-0.216-1.56-0.408-2.376-1.056-3.648C112.715,53.333,111.851,53.597,110.867,53.573z"/>
		</g>
		<g>
			<path d="M110.553,19.666c1.008,0.024,1.776,0.36,2.232,0.912V1.234h0.456c0,1.176,0.552,2.568,1.248,3.552
				c0.792,1.08,1.752,2.352,2.688,3.888c0.792,1.344,1.44,3.456,1.56,4.416c0.144,0.984,0.216,1.968,0.192,2.928
				c-0.024,1.44-0.24,2.808-0.72,4.08l-0.288-0.144c0.432-1.08,0.648-2.664,0.648-4.032c0-1.128-0.192-2.64-0.6-3.792
				c-0.72-2.136-1.92-3.384-2.616-3.864c-1.08-0.696-2.112-0.744-2.112-0.744v14.16c0.024,0.36-0.024,0.744-0.168,1.128
				c-0.624,1.704-2.784,3.072-4.8,3.048s-3.144-1.416-2.496-3.144C106.401,21.01,108.538,19.642,110.553,19.666z"/>
		</g>
		<g>
			<g>
				<path d="M239.68,49.429c0,0.859-0.391,1.556-0.877,1.556c-0.482,0-0.875-0.696-0.875-1.556c0-0.857,0.393-1.555,0.875-1.555
					C239.29,47.875,239.68,48.572,239.68,49.429z"/>
				<g>
					<g>
						<path fill="none" d="M239.331,48.393c1.752,2.073,3.154,2.073,4.559-0.519"/>
						<path d="M238.952,48.714c0.704,0.807,1.59,1.693,2.741,1.663c1.249-0.034,2.055-1.247,2.602-2.219
							c0.312-0.552-0.499-1.127-0.813-0.568c-0.379,0.673-0.851,1.56-1.658,1.779c-0.832,0.226-1.654-0.768-2.116-1.298
							C239.289,47.59,238.53,48.231,238.952,48.714z"/>
					</g>
				</g>
				<g>
					<g>
						<path fill="none" d="M238.629,60.315c1.402-4.146,3.506-7.774,4.908-11.922"/>
						<path d="M239.095,60.487c1.429-4.061,3.48-7.86,4.908-11.922c0.212-0.604-0.718-0.947-0.931-0.344
							c-1.428,4.061-3.479,7.86-4.908,11.922C237.952,60.747,238.882,61.09,239.095,60.487z"/>
					</g>
				</g>
			</g>
			<path stroke="#000000" stroke-width="0.5" d="M239.68,49.429c0,0.915-0.66,1.656-1.477,1.656c-0.814,0-1.477-0.741-1.477-1.656
				c0-0.914,0.662-1.656,1.477-1.656C239.02,47.773,239.68,48.515,239.68,49.429z"/>
		</g>
		<g>
			<path d="M165.147,47.38c2.04,0.024,3.168,1.44,2.52,3.144c-0.288,0.816-0.936,1.536-1.728,2.088
				c0.816,1.824,1.344,3.744,1.008,6.168c-0.192,1.272-0.6,2.736-1.584,4.368c-1.032,1.728-2.112,3.36-3.048,4.68
				c-0.816,1.128-1.632,2.64-1.632,3.984h-0.456v-0.096h-0.048c0-24.216,0-20.4,0-20.4c0-0.264,0.072-0.576,0.192-0.888
				C160.995,48.724,163.131,47.356,165.147,47.38z M162.867,53.572c-0.984,0-1.776-0.36-2.232-0.912v12.768h0.048
				c0,0,1.248-0.12,2.448-0.936c0.816-0.552,2.184-2.064,3-4.512c0.48-1.344,0.6-2.664,0.48-3.528
				c-0.216-1.56-0.408-2.376-1.056-3.648C164.715,53.332,163.851,53.596,162.867,53.572z"/>
		</g>
		<g>
			<path d="M135.553,19.666c1.008,0.024,1.776,0.36,2.232,0.912V1.234h0.456c0,1.176,0.552,2.568,1.248,3.552
				c0.792,1.08,1.752,2.352,2.688,3.888c0.792,1.344,1.44,3.456,1.56,4.416c0.144,0.984,0.216,1.968,0.192,2.928
				c-0.024,1.44-0.24,2.808-0.72,4.08l-0.288-0.144c0.432-1.08,0.648-2.664,0.648-4.032c0-1.128-0.192-2.64-0.6-3.792
				c-0.72-2.136-1.92-3.384-2.616-3.864c-1.08-0.696-2.112-0.744-2.112-0.744v14.16c0.024,0.36-0.024,0.744-0.168,1.128
				c-0.624,1.704-2.784,3.072-4.8,3.048s-3.144-1.416-2.496-3.144C131.401,21.01,133.537,19.642,135.553,19.666z"/>
		</g>
		<g>
			<g>
				<path d="M161.403,11.764c0,0.859-0.391,1.556-0.877,1.556c-0.482,0-0.875-0.696-0.875-1.556c0-0.857,0.393-1.555,0.875-1.555
					C161.013,10.209,161.403,10.906,161.403,11.764z"/>
				<g>
					<g>
						<path fill="none" d="M161.054,10.728c1.752,2.073,3.154,2.073,4.559-0.519"/>
						<path d="M160.675,11.049c0.704,0.807,1.59,1.693,2.741,1.663c1.249-0.034,2.055-1.247,2.602-2.219
							c0.312-0.552-0.499-1.127-0.813-0.568c-0.379,0.673-0.851,1.56-1.658,1.779c-0.832,0.226-1.654-0.768-2.116-1.298
							C161.012,9.925,160.253,10.565,160.675,11.049z"/>
					</g>
				</g>
				<g>
					<g>
						<path fill="none" d="M160.353,22.649c1.402-4.146,3.506-7.774,4.908-11.922"/>
						<path d="M160.818,22.821c1.429-4.061,3.48-7.86,4.908-11.922c0.212-0.604-0.718-0.947-0.931-0.344
							c-1.428,4.061-3.479,7.86-4.908,11.922C159.675,23.081,160.605,23.425,160.818,22.821z"/>
					</g>
				</g>
			</g>
			<path stroke="#000000" stroke-width="0.5" d="M161.403,11.764c0,0.915-0.66,1.656-1.477,1.656c-0.814,0-1.477-0.741-1.477-1.656
				c0-0.914,0.662-1.656,1.477-1.656C160.743,10.107,161.403,10.85,161.403,11.764z"/>
		</g>
		<g>
			<path d="M190.147,47.38c2.04,0.024,3.168,1.44,2.52,3.144c-0.288,0.816-0.936,1.536-1.728,2.088
				c0.816,1.824,1.344,3.744,1.008,6.168c-0.192,1.272-0.6,2.736-1.584,4.368c-1.032,1.728-2.112,3.36-3.048,4.68
				c-0.816,1.128-1.632,2.64-1.632,3.984h-0.456v-0.096h-0.048c0-24.216,0-20.4,0-20.4c0-0.264,0.072-0.576,0.192-0.888
				C185.995,48.724,188.131,47.356,190.147,47.38z M187.867,53.572c-0.984,0-1.776-0.36-2.232-0.912v12.768h0.048
				c0,0,1.248-0.12,2.448-0.936c0.816-0.552,2.184-2.064,3-4.512c0.48-1.344,0.6-2.664,0.48-3.528
				c-0.216-1.56-0.408-2.376-1.056-3.648C189.715,53.332,188.851,53.596,187.867,53.572z"/>
		</g>
		<g>
			<path d="M189.553,18.666c1.008,0.024,1.776,0.36,2.232,0.912V0.234h0.456c0,1.176,0.552,2.568,1.248,3.552
				c0.792,1.08,1.752,2.352,2.688,3.888c0.792,1.344,1.44,3.456,1.56,4.416c0.144,0.984,0.216,1.968,0.192,2.928
				c-0.024,1.44-0.24,2.808-0.72,4.08l-0.288-0.144c0.432-1.08,0.648-2.664,0.648-4.032c0-1.128-0.192-2.64-0.6-3.792
				c-0.72-2.136-1.92-3.384-2.616-3.864c-1.08-0.696-2.112-0.744-2.112-0.744v14.16c0.024,0.36-0.024,0.744-0.168,1.128
				c-0.624,1.704-2.784,3.072-4.8,3.048s-3.144-1.416-2.496-3.144C185.401,20.01,187.537,18.642,189.553,18.666z"/>
		</g>
		<g>
			<g>
				<path d="M83.189,11.764c0,0.859-0.391,1.556-0.877,1.556c-0.482,0-0.875-0.696-0.875-1.556c0-0.857,0.393-1.555,0.875-1.555
					C82.798,10.209,83.189,10.906,83.189,11.764z"/>
				<g>
					<g>
						<path fill="none" d="M82.839,10.728c1.752,2.073,3.154,2.073,4.559-0.519"/>
						<path d="M82.461,11.049c0.704,0.807,1.59,1.693,2.741,1.663c1.249-0.034,2.055-1.247,2.602-2.219
							c0.312-0.552-0.499-1.127-0.813-0.568c-0.379,0.673-0.851,1.56-1.658,1.779c-0.832,0.226-1.654-0.768-2.116-1.298
							C82.798,9.925,82.039,10.565,82.461,11.049z"/>
					</g>
				</g>
				<g>
					<g>
						<path fill="none" d="M82.138,22.649c1.402-4.146,3.506-7.774,4.908-11.922"/>
						<path d="M82.604,22.821c1.429-4.061,3.48-7.86,4.908-11.922c0.212-0.604-0.718-0.947-0.931-0.344
							c-1.428,4.061-3.479,7.86-4.908,11.922C81.46,23.081,82.391,23.425,82.604,22.821z"/>
					</g>
				</g>
			</g>
			<path stroke="#000000" stroke-width="0.5" d="M83.189,11.764c0,0.915-0.66,1.656-1.477,1.656c-0.814,0-1.477-0.741-1.477-1.656
				c0-0.914,0.662-1.656,1.477-1.656C82.529,10.107,83.189,10.85,83.189,11.764z"/>
		</g>
		<g>
			<path d="M216.934,47.38c2.04,0.024,3.168,1.44,2.52,3.144c-0.288,0.816-0.936,1.536-1.728,2.088
				c0.816,1.824,1.344,3.744,1.008,6.168c-0.192,1.272-0.6,2.736-1.584,4.368c-1.032,1.728-2.112,3.36-3.048,4.68
				c-0.816,1.128-1.632,2.64-1.632,3.984h-0.456v-0.096h-0.048c0-24.216,0-20.4,0-20.4c0-0.264,0.072-0.576,0.192-0.888
				C212.781,48.724,214.917,47.356,216.934,47.38z M214.653,53.572c-0.984,0-1.776-0.36-2.232-0.912v12.768h0.048
				c0,0,1.248-0.12,2.448-0.936c0.816-0.552,2.184-2.064,3-4.512c0.48-1.344,0.6-2.664,0.48-3.528
				c-0.216-1.56-0.408-2.376-1.056-3.648C216.501,53.332,215.637,53.596,214.653,53.572z"/>
		</g>
		<g>
			<path d="M238.339,19.88c1.008,0.024,1.776,0.36,2.232,0.912V1.448h0.456c0,1.176,0.552,2.568,1.248,3.552
				c0.792,1.08,1.752,2.352,2.688,3.888c0.792,1.344,1.44,3.456,1.56,4.416c0.144,0.984,0.216,1.968,0.192,2.928
				c-0.024,1.44-0.24,2.808-0.72,4.08l-0.288-0.144c0.432-1.08,0.648-2.664,0.648-4.032c0-1.128-0.192-2.64-0.6-3.792
				c-0.72-2.136-1.92-3.384-2.616-3.864c-1.08-0.696-2.112-0.744-2.112-0.744v14.16c0.024,0.36-0.024,0.744-0.168,1.128
				c-0.624,1.704-2.784,3.072-4.8,3.048s-3.144-1.416-2.496-3.144C234.187,21.224,236.323,19.856,238.339,19.88z"/>
		</g>
		<g>
			<g>
				<path d="M211.975,11.764c0,0.859-0.391,1.556-0.877,1.556c-0.482,0-0.875-0.696-0.875-1.556c0-0.857,0.393-1.555,0.875-1.555
					C211.584,10.209,211.975,10.906,211.975,11.764z"/>
				<g>
					<g>
						<path fill="none" d="M211.625,10.728c1.752,2.073,3.154,2.073,4.559-0.519"/>
						<path d="M211.247,11.049c0.704,0.807,1.59,1.693,2.741,1.663c1.249-0.034,2.055-1.247,2.602-2.219
							c0.312-0.552-0.499-1.127-0.813-0.568c-0.379,0.673-0.851,1.56-1.658,1.779c-0.832,0.226-1.654-0.768-2.116-1.298
							C211.583,9.925,210.825,10.565,211.247,11.049z"/>
					</g>
				</g>
				<g>
					<g>
						<path fill="none" d="M210.924,22.649c1.402-4.146,3.506-7.774,4.908-11.922"/>
						<path d="M211.389,22.821c1.429-4.061,3.48-7.86,4.908-11.922c0.212-0.604-0.718-0.947-0.931-0.344
							c-1.428,4.061-3.479,7.86-4.908,11.922C210.246,23.081,211.177,23.425,211.389,22.821z"/>
					</g>
				</g>
			</g>
			<path stroke="#000000" stroke-width="0.5" d="M211.975,11.764c0,0.915-0.66,1.656-1.477,1.656c-0.814,0-1.477-0.741-1.477-1.656
				c0-0.914,0.662-1.656,1.477-1.656C211.314,10.107,211.975,10.85,211.975,11.764z"/>
		</g>
		<g>
			<path d="M273.575,47.381c2.04,0.024,3.168,1.44,2.521,3.144c-0.288,0.816-0.937,1.536-1.729,2.088
				c0.816,1.824,1.345,3.744,1.008,6.168c-0.191,1.272-0.6,2.736-1.584,4.368c-1.031,1.728-2.111,3.36-3.048,4.68
				c-0.815,1.128-1.632,2.64-1.632,3.984h-0.456v-0.096h-0.048c0-24.216,0-20.4,0-20.4c0-0.264,0.072-0.576,0.192-0.888
				C269.424,48.725,271.56,47.357,273.575,47.381z M271.296,53.573c-0.984,0-1.776-0.36-2.232-0.912v12.768h0.048
				c0,0,1.248-0.12,2.448-0.936c0.815-0.552,2.184-2.064,3-4.512c0.479-1.344,0.6-2.664,0.479-3.528
				c-0.216-1.56-0.407-2.376-1.056-3.648C273.144,53.333,272.279,53.597,271.296,53.573z"/>
		</g>
		<g>
			<path d="M269.196,19.667c1.008,0.024,1.775,0.36,2.231,0.912V1.234h0.456c0,1.176,0.552,2.568,1.248,3.552
				c0.792,1.08,1.752,2.352,2.688,3.888c0.792,1.344,1.439,3.456,1.56,4.416c0.145,0.984,0.216,1.968,0.192,2.928
				c-0.024,1.44-0.24,2.808-0.721,4.08l-0.287-0.144c0.432-1.08,0.647-2.664,0.647-4.032c0-1.128-0.191-2.64-0.6-3.792
				c-0.721-2.136-1.92-3.384-2.616-3.864c-1.08-0.696-2.112-0.744-2.112-0.744v14.16c0.024,0.36-0.023,0.744-0.168,1.128
				c-0.624,1.704-2.784,3.072-4.8,3.048s-3.145-1.416-2.496-3.144C265.044,21.01,267.18,19.643,269.196,19.667z"/>
		</g>
		<g>
			<path d="M348.434,46.952c2.04,0.024,3.168,1.44,2.521,3.144c-0.288,0.816-0.937,1.536-1.729,2.088
				c0.816,1.824,1.345,3.744,1.008,6.168c-0.191,1.272-0.6,2.736-1.584,4.368c-1.031,1.728-2.111,3.36-3.048,4.68
				c-0.815,1.128-1.632,2.64-1.632,3.984h-0.456v-0.096h-0.048c0-24.216,0-20.4,0-20.4c0-0.264,0.072-0.576,0.192-0.888
				C344.282,48.296,346.418,46.928,348.434,46.952z M346.154,53.144c-0.984,0-1.776-0.36-2.232-0.912V65h0.048
				c0,0,1.248-0.12,2.448-0.936c0.815-0.552,2.184-2.064,3-4.512c0.479-1.344,0.6-2.664,0.479-3.528
				c-0.216-1.56-0.407-2.376-1.056-3.648C348.002,52.904,347.138,53.168,346.154,53.144z"/>
		</g>
		<g>
			<path d="M297.626,19.238c1.008,0.024,1.775,0.36,2.231,0.912V0.806h0.456c0,1.176,0.552,2.568,1.248,3.552
				c0.792,1.08,1.752,2.352,2.688,3.888c0.792,1.344,1.439,3.456,1.56,4.416c0.145,0.984,0.216,1.968,0.192,2.928
				c-0.024,1.44-0.24,2.808-0.721,4.08l-0.287-0.144c0.432-1.08,0.647-2.664,0.647-4.032c0-1.128-0.191-2.64-0.6-3.792
				c-0.721-2.136-1.92-3.384-2.616-3.864c-1.08-0.696-2.112-0.744-2.112-0.744v14.16c0.024,0.36-0.023,0.744-0.168,1.128
				c-0.624,1.704-2.784,3.072-4.8,3.048s-3.145-1.416-2.496-3.144C293.474,20.582,295.609,19.214,297.626,19.238z"/>
		</g>
		<g>
			<g>
				<path d="M295.261,49.621c0,0.859-0.391,1.556-0.877,1.556c-0.482,0-0.875-0.696-0.875-1.556c0-0.857,0.393-1.555,0.875-1.555
					C294.87,48.066,295.261,48.764,295.261,49.621z"/>
				<g>
					<g>
						<path fill="none" d="M294.911,48.585c1.752,2.073,3.154,2.073,4.559-0.519"/>
						<path d="M294.533,48.906c0.703,0.807,1.59,1.694,2.74,1.663c1.25-0.033,2.056-1.247,2.603-2.218
							c0.312-0.553-0.499-1.127-0.813-0.569c-0.38,0.673-0.851,1.56-1.657,1.779c-0.832,0.227-1.654-0.768-2.117-1.297
							C294.869,47.783,294.111,48.422,294.533,48.906z"/>
					</g>
				</g>
				<g>
					<g>
						<path fill="none" d="M294.21,60.507c1.402-4.146,3.506-7.774,4.908-11.922"/>
						<path d="M294.676,60.679c1.428-4.061,3.479-7.861,4.908-11.922c0.212-0.604-0.719-0.948-0.932-0.345
							c-1.428,4.061-3.479,7.861-4.908,11.922C293.532,60.939,294.463,61.283,294.676,60.679z"/>
					</g>
				</g>
			</g>
			<path stroke="#000000" stroke-width="0.5" d="M295.261,49.621c0,0.915-0.66,1.656-1.477,1.656c-0.814,0-1.477-0.741-1.477-1.656
				c0-0.914,0.662-1.656,1.477-1.656C294.601,47.965,295.261,48.707,295.261,49.621z"/>
		</g>
		<path fill="none" stroke="#000000" d="M43.037,2v71.429"/>
		<path fill="none" stroke="#000000" d="M150.894,0v71.429"/>
		<path fill="none" stroke="#000000" d="M256.108,0v71.429"/>
		<path fill="none" stroke="#000000" d="M366.18,2.572V74"/>
		<g>
			<path d="M347.625,19.238c1.008,0.024,1.775,0.36,2.231,0.912V0.806h0.456c0,1.176,0.552,2.568,1.248,3.552
				c0.792,1.08,1.752,2.352,2.688,3.888c0.792,1.344,1.439,3.456,1.56,4.416c0.145,0.984,0.216,1.968,0.192,2.928
				c-0.024,1.44-0.24,2.808-0.721,4.08l-0.287-0.144c0.432-1.08,0.647-2.664,0.647-4.032c0-1.128-0.191-2.64-0.6-3.792
				c-0.721-2.136-1.92-3.384-2.616-3.864c-1.08-0.696-2.112-0.744-2.112-0.744v14.16c0.024,0.36-0.023,0.744-0.168,1.128
				c-0.624,1.704-2.784,3.072-4.8,3.048s-3.145-1.416-2.496-3.144C343.473,20.582,345.608,19.214,347.625,19.238z"/>
		</g>
		<g>
			<path d="M321.433,46.951c2.04,0.024,3.168,1.44,2.521,3.144c-0.288,0.816-0.937,1.536-1.729,2.088
				c0.816,1.824,1.345,3.744,1.008,6.168c-0.191,1.272-0.6,2.736-1.584,4.368c-1.031,1.728-2.111,3.36-3.048,4.68
				c-0.815,1.128-1.632,2.64-1.632,3.984h-0.456v-0.096h-0.048c0-24.216,0-20.4,0-20.4c0-0.264,0.072-0.576,0.192-0.888
				C317.281,48.295,319.417,46.927,321.433,46.951z M319.153,53.143c-0.984,0-1.776-0.36-2.232-0.912v12.768h0.048
				c0,0,1.248-0.12,2.448-0.936c0.815-0.552,2.184-2.064,3-4.512c0.479-1.344,0.6-2.664,0.479-3.528
				c-0.216-1.56-0.407-2.376-1.056-3.648C321.001,52.903,320.137,53.167,319.153,53.143z"/>
		</g>
		<g>
			<g>
				<path d="M321.047,12.335c0,0.859-0.391,1.556-0.877,1.556c-0.482,0-0.875-0.696-0.875-1.556c0-0.857,0.393-1.555,0.875-1.555
					C320.656,10.78,321.047,11.478,321.047,12.335z"/>
				<g>
					<g>
						<path fill="none" d="M320.697,11.299c1.752,2.073,3.154,2.073,4.559-0.519"/>
						<path d="M320.318,11.62c0.703,0.807,1.59,1.694,2.741,1.663c1.249-0.033,2.056-1.247,2.603-2.218
							c0.311-0.553-0.498-1.127-0.813-0.569c-0.38,0.673-0.852,1.56-1.658,1.779c-0.832,0.227-1.654-0.768-2.116-1.297
							C320.655,10.497,319.896,11.136,320.318,11.62z"/>
					</g>
				</g>
				<g>
					<g>
						<path fill="none" d="M319.996,23.221c1.402-4.146,3.506-7.774,4.908-11.922"/>
						<path d="M320.461,23.393c1.429-4.061,3.48-7.861,4.908-11.922c0.213-0.604-0.719-0.948-0.931-0.345
							c-1.429,4.061-3.479,7.861-4.908,11.922C319.318,23.653,320.248,23.997,320.461,23.393z"/>
					</g>
				</g>
			</g>
			<path stroke="#000000" stroke-width="0.5" d="M321.047,12.335c0,0.915-0.66,1.656-1.477,1.656c-0.814,0-1.477-0.741-1.477-1.656
				c0-0.914,0.662-1.656,1.477-1.656C320.387,10.679,321.047,11.421,321.047,12.335z"/>
		</g>
	</g>
</svg>
