<?xml version="1.0" encoding="utf-8"?>
<!-- Generator: Adobe Illustrator 10.0, SVG Export Plug-In . SVG Version: 3.0.0 Build 76)  -->
<!DOCTYPE svg PUBLIC "-//W3C//DTD SVG 1.0//EN"    "http://www.w3.org/TR/2001/REC-SVG-20010904/DTD/svg10.dtd" [
	<!ENTITY ns_flows "http://ns.adobe.com/Flows/1.0/">
	<!ENTITY ns_extend "http://ns.adobe.com/Extensibility/1.0/">
	<!ENTITY ns_ai "http://ns.adobe.com/AdobeIllustrator/10.0/">
	<!ENTITY ns_svg "http://www.w3.org/2000/svg">
	<!ENTITY ns_xlink "http://www.w3.org/1999/xlink">
]>
<svg  xmlns:x="&ns_extend;" xmlns:i="&ns_ai;" xmlns:graph="&ns_graphs;"
	 xmlns="&ns_svg;" xmlns:xlink="&ns_xlink;" xmlns:a="http://ns.adobe.com/AdobeSVGViewerExtensions/3.0/" width="489" height="57"
	 viewBox="0.461 0.291 489 57" overflow="visible" enable-background="new 0.461 0.291 489 57" xml:space="preserve">
	<g id="Layer_1_2_">
		<g>
			<path fill="none" stroke="#000000" d="M0.128,14.456h487.984"/>
			<path fill="none" stroke="#000000" d="M0.128,28.568h487.984"/>
			<path fill="none" stroke="#000000" d="M0.374,35.69h487.983"/>
			<path fill="none" stroke="#000000" d="M0,43.074h487.984"/>
			<path fill="none" stroke="#000000" d="M0,21.71h487.984"/>
		</g>
		<g>
			<path d="M18.925,27.291c-1.896,0-4.44-0.864-4.44-3.096c0-1.536,1.128-2.544,1.776-2.808c-1.2-0.672-1.536-1.776-1.536-2.76
				c0-2.28,2.016-3.192,4.2-3.216c3.192,0,4.08,1.392,4.128,2.976c0.024,0.888-0.432,1.728-1.152,2.328
				c0.864,0.432,1.584,1.296,1.584,2.568C23.485,25.73,20.989,27.291,18.925,27.291z M16.981,21.842
				c-0.792,0.48-1.272,0.912-1.248,1.92c0.024,1.608,0.72,2.76,2.928,2.76c0.72,0,2.376-0.792,2.376-1.944
				C21.038,22.683,17.965,22.011,16.981,21.842z M18.949,16.01c-1.176,0-2.448,0.672-2.256,1.68c0.192,1.008,3.384,2.16,4.392,2.496
				c0.408-0.432,0.84-1.152,0.792-1.8C21.781,17.163,21.133,16.01,18.949,16.01z"/>
		</g>
		<g>
			<path d="M70.763,32.432c2.04,0.024,3.168,1.44,2.52,3.144c-0.288,0.816-0.936,1.536-1.728,2.088
				c0.816,1.824,1.344,3.744,1.008,6.168c-0.192,1.272-0.6,2.736-1.584,4.368c-1.032,1.728-2.112,3.36-3.048,4.68
				c-0.816,1.128-1.632,2.64-1.632,3.984h-0.456v-0.096h-0.048c0-24.216,0-20.4,0-20.4c0-0.264,0.072-0.576,0.192-0.888
				C66.611,33.775,68.747,32.408,70.763,32.432z M68.483,38.624c-0.984,0-1.776-0.36-2.232-0.912v12.768h0.048
				c0,0,1.248-0.12,2.448-0.936c0.816-0.552,2.184-2.064,3-4.512c0.48-1.344,0.6-2.664,0.48-3.528
				c-0.216-1.56-0.408-2.376-1.056-3.648C70.331,38.383,69.467,38.647,68.483,38.624z"/>
		</g>
		<g>
			<path d="M33.739,18.766c1.008,0.024,1.776,0.36,2.232,0.912V0.333h0.456c0,1.176,0.552,2.568,1.248,3.552
				c0.792,1.08,1.752,2.352,2.688,3.888c0.792,1.344,1.44,3.456,1.56,4.416c0.144,0.984,0.216,1.968,0.192,2.928
				c-0.024,1.44-0.24,2.808-0.72,4.08l-0.288-0.144c0.432-1.08,0.648-2.664,0.648-4.032c0-1.128-0.192-2.64-0.6-3.792
				c-0.72-2.136-1.92-3.384-2.616-3.864c-1.08-0.696-2.112-0.744-2.112-0.744v14.16c0.024,0.36-0.024,0.744-0.168,1.128
				c-0.624,1.704-2.784,3.072-4.8,3.048s-3.144-1.416-2.496-3.144C29.587,20.109,31.723,18.742,33.739,18.766z"/>
		</g>
		<g>
			<path d="M18.925,42.291c-1.896,0-4.44-0.864-4.44-3.096c0-1.536,1.128-2.544,1.776-2.808c-1.2-0.672-1.536-1.776-1.536-2.76
				c0-2.28,2.016-3.192,4.2-3.216c3.192,0,4.08,1.392,4.128,2.976c0.024,0.888-0.432,1.728-1.152,2.328
				c0.864,0.432,1.584,1.296,1.584,2.568C23.485,40.73,20.989,42.291,18.925,42.291z M16.981,36.842
				c-0.792,0.48-1.272,0.912-1.248,1.92c0.024,1.608,0.72,2.76,2.928,2.76c0.72,0,2.376-0.792,2.376-1.944
				C21.038,37.683,17.965,37.011,16.981,36.842z M18.949,31.01c-1.176,0-2.448,0.672-2.256,1.68c0.192,1.008,3.384,2.16,4.392,2.496
				c0.408-0.432,0.84-1.152,0.792-1.8C21.781,32.163,21.133,31.01,18.949,31.01z"/>
		</g>
		<path fill="none" stroke="#000000" stroke-width="2" d="M3.461,21.624v14"/>
		<path fill="none" stroke="#000000" stroke-width="2" d="M7.461,21.624v14"/>
		<g>
			<path d="M52.405,24.766c1.008,0.024,1.776,0.36,2.232,0.912V6.333h0.456c0,1.176,0.552,2.568,1.248,3.552
				c0.792,1.08,1.752,2.352,2.688,3.888c0.792,1.344,1.44,3.456,1.56,4.416c0.144,0.984,0.216,1.968,0.192,2.928
				c-0.024,1.44-0.24,2.808-0.72,4.08l-0.288-0.144c0.432-1.08,0.648-2.664,0.648-4.032c0-1.128-0.192-2.64-0.6-3.792
				c-0.72-2.136-1.92-3.384-2.616-3.864c-1.08-0.696-2.112-0.744-2.112-0.744v14.16c0.024,0.36-0.024,0.744-0.168,1.128
				c-0.624,1.704-2.784,3.072-4.8,3.048s-3.144-1.416-2.496-3.144C48.253,26.109,50.39,24.742,52.405,24.766z"/>
		</g>
		<g>
			<path d="M125.763,33.098c2.04,0.024,3.168,1.44,2.52,3.144c-0.288,0.816-0.936,1.536-1.728,2.088
				c0.816,1.824,1.344,3.744,1.008,6.168c-0.192,1.272-0.6,2.736-1.584,4.368c-1.032,1.728-2.112,3.36-3.048,4.68
				c-0.816,1.128-1.632,2.64-1.632,3.984h-0.456v-0.096h-0.048c0-24.216,0-20.4,0-20.4c0-0.264,0.072-0.576,0.192-0.888
				C121.611,34.442,123.747,33.074,125.763,33.098z M123.483,39.29c-0.984,0-1.776-0.36-2.232-0.912v12.768h0.048
				c0,0,1.248-0.12,2.448-0.936c0.816-0.552,2.184-2.064,3-4.512c0.48-1.344,0.6-2.664,0.48-3.528
				c-0.216-1.56-0.408-2.376-1.056-3.648C125.331,39.05,124.467,39.314,123.483,39.29z"/>
		</g>
		<g>
			<path d="M86.739,18.432c1.008,0.024,1.776,0.36,2.232,0.912V0h0.456c0,1.176,0.552,2.568,1.248,3.552
				c0.792,1.08,1.752,2.352,2.688,3.888c0.792,1.344,1.44,3.456,1.56,4.416c0.144,0.984,0.216,1.968,0.192,2.928
				c-0.024,1.44-0.24,2.808-0.72,4.08l-0.288-0.144c0.432-1.08,0.648-2.664,0.648-4.032c0-1.128-0.192-2.64-0.6-3.792
				c-0.72-2.136-1.92-3.384-2.616-3.864c-1.08-0.696-2.112-0.744-2.112-0.744v14.16c0.024,0.36-0.024,0.744-0.168,1.128
				c-0.624,1.704-2.784,3.072-4.8,3.048s-3.144-1.416-2.496-3.144C82.587,19.776,84.723,18.408,86.739,18.432z"/>
		</g>
		<g>
			<path d="M107.405,25.432c1.008,0.024,1.776,0.36,2.232,0.912V7h0.456c0,1.176,0.552,2.568,1.248,3.552
				c0.792,1.08,1.752,2.352,2.688,3.888c0.792,1.344,1.44,3.456,1.56,4.416c0.144,0.984,0.216,1.968,0.192,2.928
				c-0.024,1.44-0.24,2.808-0.72,4.08l-0.288-0.144c0.432-1.08,0.648-2.664,0.648-4.032c0-1.128-0.192-2.64-0.6-3.792
				c-0.72-2.136-1.92-3.384-2.616-3.864c-1.08-0.696-2.112-0.744-2.112-0.744v14.16c0.024,0.36-0.024,0.744-0.168,1.128
				c-0.624,1.704-2.784,3.072-4.8,3.048s-3.144-1.416-2.496-3.144C103.253,26.776,105.39,25.408,107.405,25.432z"/>
		</g>
		<g>
			<path d="M185.763,33.098c2.04,0.024,3.168,1.44,2.52,3.144c-0.288,0.816-0.936,1.536-1.728,2.088
				c0.816,1.824,1.344,3.744,1.008,6.168c-0.192,1.272-0.6,2.736-1.584,4.368c-1.032,1.728-2.112,3.36-3.048,4.68
				c-0.816,1.128-1.632,2.64-1.632,3.984h-0.456v-0.096h-0.048c0-24.216,0-20.4,0-20.4c0-0.264,0.072-0.576,0.192-0.888
				C181.611,34.442,183.747,33.074,185.763,33.098z M183.483,39.29c-0.984,0-1.776-0.36-2.232-0.912v12.768h0.048
				c0,0,1.248-0.12,2.448-0.936c0.816-0.552,2.184-2.064,3-4.512c0.48-1.344,0.6-2.664,0.48-3.528
				c-0.216-1.56-0.408-2.376-1.056-3.648C185.331,39.05,184.467,39.314,183.483,39.29z"/>
		</g>
		<g>
			<path d="M140.739,18.432c1.008,0.024,1.776,0.36,2.232,0.912V0h0.456c0,1.176,0.552,2.568,1.248,3.552
				c0.792,1.08,1.752,2.352,2.688,3.888c0.792,1.344,1.44,3.456,1.56,4.416c0.144,0.984,0.216,1.968,0.192,2.928
				c-0.024,1.44-0.24,2.808-0.72,4.08l-0.288-0.144c0.432-1.08,0.648-2.664,0.648-4.032c0-1.128-0.192-2.64-0.6-3.792
				c-0.72-2.136-1.92-3.384-2.616-3.864c-1.08-0.696-2.112-0.744-2.112-0.744v14.16c0.024,0.36-0.024,0.744-0.168,1.128
				c-0.624,1.704-2.784,3.072-4.8,3.048s-3.144-1.416-2.496-3.144C136.587,19.776,138.723,18.408,140.739,18.432z"/>
		</g>
		<g>
			<path d="M161.405,25.432c1.008,0.024,1.776,0.36,2.232,0.912V7h0.456c0,1.176,0.552,2.568,1.248,3.552
				c0.792,1.08,1.752,2.352,2.688,3.888c0.792,1.344,1.44,3.456,1.56,4.416c0.144,0.984,0.216,1.968,0.192,2.928
				c-0.024,1.44-0.24,2.808-0.72,4.08l-0.288-0.144c0.432-1.08,0.648-2.664,0.648-4.032c0-1.128-0.192-2.64-0.6-3.792
				c-0.72-2.136-1.92-3.384-2.616-3.864c-1.08-0.696-2.112-0.744-2.112-0.744v14.16c0.024,0.36-0.024,0.744-0.168,1.128
				c-0.624,1.704-2.784,3.072-4.8,3.048s-3.144-1.416-2.496-3.144C157.253,26.776,159.39,25.408,161.405,25.432z"/>
		</g>
		<g>
			<path d="M226.763,32.099c2.04,0.024,3.168,1.44,2.52,3.144c-0.288,0.816-0.936,1.536-1.728,2.088
				c0.816,1.824,1.344,3.744,1.008,6.168c-0.192,1.272-0.6,2.736-1.584,4.368c-1.032,1.728-2.112,3.36-3.048,4.68
				c-0.816,1.128-1.632,2.64-1.632,3.984h-0.456v-0.096h-0.048c0-24.216,0-20.4,0-20.4c0-0.264,0.072-0.576,0.192-0.888
				C222.611,33.442,224.747,32.075,226.763,32.099z M224.483,38.291c-0.984,0-1.776-0.36-2.232-0.912v12.768h0.048
				c0,0,1.248-0.12,2.448-0.936c0.816-0.552,2.184-2.064,3-4.512c0.48-1.344,0.6-2.664,0.48-3.528
				c-0.216-1.56-0.408-2.376-1.056-3.648C226.331,38.05,225.467,38.314,224.483,38.291z"/>
		</g>
		<g>
			<path d="M185.739,18.433c1.008,0.024,1.776,0.36,2.232,0.912V0h0.456c0,1.176,0.552,2.568,1.248,3.552
				c0.792,1.08,1.752,2.352,2.688,3.888c0.792,1.344,1.44,3.456,1.56,4.416c0.144,0.984,0.216,1.968,0.192,2.928
				c-0.024,1.44-0.24,2.808-0.72,4.08l-0.288-0.144c0.432-1.08,0.648-2.664,0.648-4.032c0-1.128-0.192-2.64-0.6-3.792
				c-0.72-2.136-1.92-3.384-2.616-3.864c-1.08-0.696-2.112-0.744-2.112-0.744v14.16c0.024,0.36-0.024,0.744-0.168,1.128
				c-0.624,1.704-2.784,3.072-4.8,3.048s-3.144-1.416-2.496-3.144C181.587,19.776,183.723,18.409,185.739,18.433z"/>
		</g>
		<g>
			<path d="M205.405,25.433c1.008,0.024,1.776,0.36,2.232,0.912V7h0.456c0,1.176,0.552,2.568,1.248,3.552
				c0.792,1.08,1.752,2.352,2.688,3.888c0.792,1.344,1.44,3.456,1.56,4.416c0.144,0.984,0.216,1.968,0.192,2.928
				c-0.024,1.44-0.24,2.808-0.72,4.08l-0.288-0.144c0.432-1.08,0.648-2.664,0.648-4.032c0-1.128-0.192-2.64-0.6-3.792
				c-0.72-2.136-1.92-3.384-2.616-3.864c-1.08-0.696-2.112-0.744-2.112-0.744v14.16c0.024,0.36-0.024,0.744-0.168,1.128
				c-0.624,1.704-2.784,3.072-4.8,3.048s-3.144-1.416-2.496-3.144C201.253,26.776,203.39,25.409,205.405,25.433z"/>
		</g>
		<path fill="none" stroke="#000000" d="M174.128,14.624v28"/>
		<g>
			<path d="M283.763,32.098c2.04,0.024,3.168,1.44,2.521,3.144c-0.288,0.816-0.937,1.536-1.729,2.088
				c0.816,1.824,1.345,3.744,1.008,6.168c-0.191,1.272-0.6,2.736-1.584,4.368c-1.031,1.728-2.111,3.36-3.048,4.68
				c-0.815,1.128-1.632,2.64-1.632,3.984h-0.456v-0.096h-0.048c0-24.216,0-20.4,0-20.4c0-0.264,0.072-0.576,0.192-0.888
				C279.612,33.442,281.748,32.074,283.763,32.098z M281.484,38.29c-0.984,0-1.776-0.36-2.232-0.912v12.768h0.048
				c0,0,1.248-0.12,2.448-0.936c0.815-0.552,2.184-2.064,3-4.512c0.479-1.344,0.6-2.664,0.479-3.528
				c-0.216-1.56-0.407-2.376-1.056-3.648C283.332,38.05,282.467,38.314,281.484,38.29z"/>
		</g>
		<g>
			<path d="M242.739,18.432c1.008,0.024,1.776,0.36,2.232,0.912V0h0.456c0,1.176,0.552,2.568,1.248,3.552
				c0.792,1.08,1.752,2.352,2.688,3.888c0.792,1.344,1.44,3.456,1.56,4.416c0.144,0.984,0.216,1.968,0.192,2.928
				c-0.024,1.44-0.24,2.808-0.72,4.08l-0.288-0.144c0.432-1.08,0.648-2.664,0.648-4.032c0-1.128-0.192-2.64-0.6-3.792
				c-0.72-2.136-1.92-3.384-2.616-3.864c-1.08-0.696-2.112-0.744-2.112-0.744v14.16c0.024,0.36-0.024,0.744-0.168,1.128
				c-0.624,1.704-2.784,3.072-4.8,3.048s-3.144-1.416-2.496-3.144C238.587,19.776,240.723,18.408,242.739,18.432z"/>
		</g>
		<g>
			<path d="M263.406,25.432c1.008,0.024,1.775,0.36,2.231,0.912V7h0.456c0,1.176,0.552,2.568,1.248,3.552
				c0.792,1.08,1.752,2.352,2.688,3.888c0.792,1.344,1.439,3.456,1.56,4.416c0.145,0.984,0.216,1.968,0.192,2.928
				c-0.024,1.44-0.24,2.808-0.721,4.08l-0.287-0.144c0.432-1.08,0.647-2.664,0.647-4.032c0-1.128-0.191-2.64-0.6-3.792
				c-0.721-2.136-1.92-3.384-2.616-3.864c-1.08-0.696-2.112-0.744-2.112-0.744v14.16c0.024,0.36-0.023,0.744-0.168,1.128
				c-0.624,1.704-2.784,3.072-4.8,3.048c-2.016-0.024-3.144-1.416-2.496-3.144C259.253,26.776,261.39,25.408,263.406,25.432z"/>
		</g>
		<g>
			<path d="M348.762,32.765c2.04,0.024,3.168,1.44,2.521,3.144c-0.288,0.816-0.937,1.536-1.729,2.088
				c0.816,1.824,1.345,3.744,1.008,6.168c-0.191,1.272-0.6,2.736-1.584,4.368c-1.031,1.728-2.111,3.36-3.048,4.68
				c-0.815,1.128-1.632,2.64-1.632,3.984h-0.456v-0.096h-0.048c0-24.216,0-20.4,0-20.4c0-0.264,0.072-0.576,0.192-0.888
				C344.611,34.109,346.747,32.741,348.762,32.765z M346.483,38.957c-0.984,0-1.776-0.36-2.232-0.912v12.768h0.048
				c0,0,1.248-0.12,2.448-0.936c0.815-0.552,2.184-2.064,3-4.512c0.479-1.344,0.6-2.664,0.479-3.528
				c-0.216-1.56-0.407-2.376-1.056-3.648C348.331,38.717,347.466,38.981,346.483,38.957z"/>
		</g>
		<g>
			<path d="M299.739,19.099c1.008,0.024,1.775,0.36,2.231,0.912V0.667h0.456c0,1.176,0.552,2.568,1.248,3.552
				c0.792,1.08,1.752,2.352,2.688,3.888c0.792,1.344,1.439,3.456,1.56,4.416c0.145,0.984,0.216,1.968,0.192,2.928
				c-0.024,1.44-0.24,2.808-0.721,4.08l-0.287-0.144c0.432-1.08,0.647-2.664,0.647-4.032c0-1.128-0.191-2.64-0.6-3.792
				c-0.721-2.136-1.92-3.384-2.616-3.864c-1.08-0.696-2.112-0.744-2.112-0.744v14.16c0.024,0.36-0.023,0.744-0.168,1.128
				c-0.624,1.704-2.784,3.072-4.8,3.048s-3.145-1.416-2.496-3.144C295.586,20.443,297.722,19.075,299.739,19.099z"/>
		</g>
		<g>
			<path d="M320.406,25.099c1.008,0.024,1.775,0.36,2.231,0.912V6.667h0.456c0,1.176,0.552,2.568,1.248,3.552
				c0.792,1.08,1.752,2.352,2.688,3.888c0.792,1.344,1.439,3.456,1.56,4.416c0.145,0.984,0.216,1.968,0.192,2.928
				c-0.024,1.44-0.24,2.808-0.721,4.08l-0.287-0.144c0.432-1.08,0.647-2.664,0.647-4.032c0-1.128-0.191-2.64-0.6-3.792
				c-0.721-2.136-1.92-3.384-2.616-3.864c-1.08-0.696-2.112-0.744-2.112-0.744v14.16c0.024,0.36-0.023,0.744-0.168,1.128
				c-0.624,1.704-2.784,3.072-4.8,3.048s-3.145-1.416-2.496-3.144C316.253,26.443,318.389,25.075,320.406,25.099z"/>
		</g>
		<path fill="none" stroke="#000000" d="M488.646,15.074v28"/>
		<path fill="none" stroke="#000000" d="M334.795,15.291v28"/>
		<g>
			<path d="M349.74,19.099c1.008,0.024,1.775,0.36,2.231,0.912V0.667h0.456c0,1.176,0.552,2.568,1.248,3.552
				c0.792,1.08,1.752,2.352,2.688,3.888c0.792,1.344,1.439,3.456,1.56,4.416c0.145,0.984,0.216,1.968,0.192,2.928
				c-0.024,1.44-0.24,2.808-0.721,4.08l-0.287-0.144c0.432-1.08,0.647-2.664,0.647-4.032c0-1.128-0.191-2.64-0.6-3.792
				c-0.721-2.136-1.92-3.384-2.616-3.864c-1.08-0.696-2.112-0.744-2.112-0.744v14.16c0.024,0.36-0.023,0.744-0.168,1.128
				c-0.624,1.704-2.784,3.072-4.8,3.048s-3.145-1.416-2.496-3.144C345.587,20.442,347.723,19.075,349.74,19.099z"/>
		</g>
		<g>
			<path d="M370.406,25.099c1.008,0.024,1.775,0.36,2.231,0.912V6.667h0.456c0,1.176,0.552,2.568,1.248,3.552
				c0.792,1.08,1.752,2.352,2.688,3.888c0.792,1.344,1.439,3.456,1.56,4.416c0.145,0.984,0.216,1.968,0.192,2.928
				c-0.024,1.44-0.24,2.808-0.721,4.08l-0.287-0.144c0.432-1.08,0.647-2.664,0.647-4.032c0-1.128-0.191-2.64-0.6-3.792
				c-0.721-2.136-1.92-3.384-2.616-3.864c-1.08-0.696-2.112-0.744-2.112-0.744v14.16c0.024,0.36-0.023,0.744-0.168,1.128
				c-0.624,1.704-2.784,3.072-4.8,3.048s-3.145-1.416-2.496-3.144C366.253,26.442,368.389,25.075,370.406,25.099z"/>
		</g>
		<g>
			<path d="M404.74,18.765c1.008,0.024,1.775,0.36,2.231,0.912V0.333h0.456c0,1.176,0.552,2.568,1.248,3.552
				c0.792,1.08,1.752,2.352,2.688,3.888c0.792,1.344,1.439,3.456,1.56,4.416c0.145,0.984,0.216,1.968,0.192,2.928
				c-0.024,1.44-0.24,2.808-0.721,4.08l-0.287-0.144c0.432-1.08,0.647-2.664,0.647-4.032c0-1.128-0.191-2.64-0.6-3.792
				c-0.721-2.136-1.92-3.384-2.616-3.864c-1.08-0.696-2.112-0.744-2.112-0.744v14.16c0.024,0.36-0.023,0.744-0.168,1.128
				c-0.624,1.704-2.784,3.072-4.8,3.048s-3.145-1.416-2.496-3.144C400.587,20.109,402.723,18.741,404.74,18.765z"/>
		</g>
		<g>
			<path d="M425.406,25.765c1.008,0.024,1.775,0.36,2.231,0.912V7.333h0.456c0,1.176,0.552,2.568,1.248,3.552
				c0.792,1.08,1.752,2.352,2.688,3.888c0.792,1.344,1.439,3.456,1.56,4.416c0.145,0.984,0.216,1.968,0.192,2.928
				c-0.024,1.44-0.24,2.808-0.721,4.08l-0.287-0.144c0.432-1.08,0.647-2.664,0.647-4.032c0-1.128-0.191-2.64-0.6-3.792
				c-0.721-2.136-1.92-3.384-2.616-3.864c-1.08-0.696-2.112-0.744-2.112-0.744v14.16c0.024,0.36-0.023,0.744-0.168,1.128
				c-0.624,1.704-2.784,3.072-4.8,3.048s-3.145-1.416-2.496-3.144C421.253,27.109,423.389,25.741,425.406,25.765z"/>
		</g>
		<g>
			<path d="M458.073,18.765c1.008,0.024,1.775,0.36,2.231,0.912V0.333h0.456c0,1.176,0.552,2.568,1.248,3.552
				c0.792,1.08,1.752,2.352,2.688,3.888c0.792,1.344,1.439,3.456,1.56,4.416c0.145,0.984,0.216,1.968,0.192,2.928
				c-0.024,1.44-0.24,2.808-0.721,4.08l-0.287-0.144c0.432-1.08,0.647-2.664,0.647-4.032c0-1.128-0.191-2.64-0.6-3.792
				c-0.721-2.136-1.92-3.384-2.616-3.864c-1.08-0.696-2.112-0.744-2.112-0.744v14.16c0.024,0.36-0.023,0.744-0.168,1.128
				c-0.624,1.704-2.784,3.072-4.8,3.048s-3.145-1.416-2.496-3.144C453.92,20.109,456.056,18.741,458.073,18.765z"/>
		</g>
		<g>
			<path d="M476.406,25.765c1.008,0.024,1.775,0.36,2.231,0.912V7.333h0.456c0,1.176,0.552,2.568,1.248,3.552
				c0.792,1.08,1.752,2.352,2.688,3.888c0.792,1.344,1.439,3.456,1.56,4.416c0.145,0.984,0.216,1.968,0.192,2.928
				c-0.024,1.44-0.24,2.808-0.721,4.08l-0.287-0.144c0.432-1.08,0.647-2.664,0.647-4.032c0-1.128-0.191-2.64-0.6-3.792
				c-0.721-2.136-1.92-3.384-2.616-3.864c-1.08-0.696-2.112-0.744-2.112-0.744v14.16c0.024,0.36-0.023,0.744-0.168,1.128
				c-0.624,1.704-2.784,3.072-4.8,3.048s-3.145-1.416-2.496-3.144C472.253,27.109,474.389,25.741,476.406,25.765z"/>
		</g>
		<g>
			<path d="M390.096,32.765c2.04,0.024,3.168,1.44,2.521,3.144c-0.288,0.816-0.937,1.536-1.729,2.088
				c0.816,1.824,1.345,3.744,1.008,6.168c-0.191,1.272-0.6,2.736-1.584,4.368c-1.031,1.728-2.111,3.36-3.048,4.68
				c-0.815,1.128-1.632,2.64-1.632,3.984h-0.456v-0.096h-0.048c0-24.216,0-20.4,0-20.4c0-0.264,0.072-0.576,0.192-0.888
				C385.945,34.109,388.081,32.741,390.096,32.765z M387.817,38.957c-0.984,0-1.776-0.36-2.232-0.912v12.768h0.048
				c0,0,1.248-0.12,2.448-0.936c0.815-0.552,2.184-2.064,3-4.512c0.479-1.344,0.6-2.664,0.479-3.528
				c-0.216-1.56-0.407-2.376-1.056-3.648C389.665,38.717,388.8,38.981,387.817,38.957z"/>
		</g>
		<g>
			<path d="M445.096,32.432c2.04,0.024,3.168,1.44,2.521,3.144c-0.288,0.816-0.937,1.536-1.729,2.088
				c0.816,1.824,1.345,3.744,1.008,6.168c-0.191,1.272-0.6,2.736-1.584,4.368c-1.031,1.728-2.111,3.36-3.048,4.68
				c-0.815,1.128-1.632,2.64-1.632,3.984h-0.456v-0.096h-0.048c0-24.216,0-20.4,0-20.4c0-0.264,0.072-0.576,0.192-0.888
				C440.945,33.775,443.081,32.408,445.096,32.432z M442.817,38.624c-0.984,0-1.776-0.36-2.232-0.912v12.768h0.048
				c0,0,1.248-0.12,2.448-0.936c0.815-0.552,2.184-2.064,3-4.512c0.479-1.344,0.6-2.664,0.479-3.528
				c-0.216-1.56-0.407-2.376-1.056-3.648C444.665,38.383,443.8,38.647,442.817,38.624z"/>
		</g>
	</g>
</svg>
