<?xml version="1.0" encoding="utf-8"?>
<!-- Generator: Adobe Illustrator 10.0, SVG Export Plug-In . SVG Version: 3.0.0 Build 76)  -->
<!DOCTYPE svg PUBLIC "-//W3C//DTD SVG 1.0//EN"    "http://www.w3.org/TR/2001/REC-SVG-20010904/DTD/svg10.dtd" [
	<!ENTITY ns_flows "http://ns.adobe.com/Flows/1.0/">
	<!ENTITY ns_extend "http://ns.adobe.com/Extensibility/1.0/">
	<!ENTITY ns_ai "http://ns.adobe.com/AdobeIllustrator/10.0/">
	<!ENTITY ns_svg "http://www.w3.org/2000/svg">
	<!ENTITY ns_xlink "http://www.w3.org/1999/xlink">
]>
<svg  xmlns:x="&ns_extend;" xmlns:i="&ns_ai;" xmlns:graph="&ns_graphs;"
	 xmlns="&ns_svg;" xmlns:xlink="&ns_xlink;" xmlns:a="http://ns.adobe.com/AdobeSVGViewerExtensions/3.0/" width="480" height="445"
	 viewBox="-0.326 -0.008 480 445" overflow="visible" enable-background="new -0.326 -0.008 480 445" xml:space="preserve">
	<g id="Layer_1_2_">
		<g>
			<path d="M167.303,57.853v1.584c0,0.96,1.128,0.936,1.128,0.936v0.624h-5.208v-0.624c0,0,1.176,0.048,1.152-0.888v-1.632h-4.44
				l-0.432-0.456c2.904-3.912,2.928-4.632,3.624-8.184h4.152c-0.984,1.824-4.296,5.256-6.624,7.968h3.72v-2.952l2.928-3.216v6.168
				h1.728v0.672H167.303z"/>
		</g>
		<path fill="none" stroke="#000000" d="M147.057,32.793h281.385"/>
		<path fill="none" stroke="#000000" d="M147.057,46.905h281.385"/>
		<path fill="none" stroke="#000000" d="M146.981,61.412h281.386"/>
		<path fill="none" stroke="#0A0A0A" d="M260.583,33.207v29.746"/>
		<g>
			<path d="M440.042,48.718c-0.713,0-1.217-0.536-1.217-1.25s0.524-1.25,1.259-1.25s1.237,0.516,1.237,1.25
				c0,0.714-0.503,1.25-1.258,1.25H440.042z"/>
		</g>
		<g>
			<path d="M160.68,280.382c0,0.96-1.2,1.8-1.848,1.8s-2.04-0.36-2.04-1.8c0-0.936,0.672-1.632,1.512-1.632
				c0.576,0,0.528-0.36,0.336-0.576c-0.528-0.552-1.488-0.96-2.664-0.624c-1.896,0.504-2.304,2.808-2.304,5.184
				c0,2.64,0.456,5.256,2.76,5.256c1.632,0,3.456-1.488,3.408-3.528h0.672c-0.024,0.624-0.432,1.92-0.84,2.424
				c-0.816,1.008-2.328,1.848-3.504,1.848c-3.168,0-5.424-2.856-5.424-6c0-3.072,2.112-5.904,5.184-5.904
				C158.52,276.83,160.68,278.054,160.68,280.382z"/>
		</g>
		<g>
			<path d="M164.259,47.012c-2.448,0-4.272-1.2-4.272-3.168c0-0.84,0.816-1.728,1.68-1.728c0.888,0,1.824,0.528,1.824,1.536
				c0,1.224-0.936,1.368-0.864,2.232c0.024,0.216,0.72,0.6,0.96,0.6c1.608,0,2.376-1.848,2.376-2.928
				c0-2.064-1.896-1.848-3.432-2.16c0-0.048,0.024-0.648,0.024-0.624c1.56-0.192,3.072-0.72,3.048-2.52
				c-0.024-2.52-2.016-2.352-2.328-2.352c-0.168,0-0.696,0.336-0.672,0.6c0.072,0.528,0.816,0.768,1.128,1.704
				c0.312,0.912-0.768,1.92-1.68,1.92c-1.056,0-1.848-1.176-1.848-1.776c0-1.392,1.104-3.144,4.848-3.144
				c1.632,0,3.432,1.128,3.432,2.904c0,2.352-2.76,2.52-2.76,2.856c1.392,0.144,3.24,0.672,3.24,2.52
				C168.963,45.933,166.011,47.012,164.259,47.012z"/>
		</g>
		<g>
			<path d="M172.982,401.435c-1.896,0-4.44-0.864-4.44-3.096c0-1.536,1.128-2.544,1.776-2.809c-1.2-0.672-1.536-1.775-1.536-2.76
				c0-2.28,2.016-3.192,4.2-3.216c3.192,0,4.08,1.392,4.128,2.976c0.024,0.889-0.432,1.729-1.152,2.328
				c0.864,0.433,1.584,1.296,1.584,2.568C177.542,399.875,175.046,401.435,172.982,401.435z M171.038,395.987
				c-0.792,0.48-1.272,0.912-1.248,1.92c0.024,1.608,0.72,2.761,2.928,2.761c0.72,0,2.376-0.792,2.376-1.944
				C175.094,396.827,172.022,396.155,171.038,395.987z M173.006,390.155c-1.176,0-2.448,0.672-2.256,1.681
				c0.192,1.008,3.384,2.159,4.392,2.495c0.408-0.432,0.84-1.151,0.792-1.8C175.838,391.307,175.19,390.155,173.006,390.155z"/>
		</g>
		<path fill="none" stroke="#000000" stroke-width="2" d="M154.09,39.862v14"/>
		<path fill="none" stroke="#000000" stroke-width="2" d="M150.492,39.862v14"/>
		<g>
			<path fill="none" stroke="#000000" d="M239.037,359.411v27.536"/>
			<path fill="none" stroke="#000000" d="M232.921,384.758l8,6"/>
			<path fill="none" stroke="#000000" d="M240.921,384.758l-8,6"/>
		</g>
		<g>
			<path fill="none" stroke="#000000" d="M189.35,90.083V62.547"/>
			<path fill="none" stroke="#000000" d="M195.466,64.735l-8-6"/>
			<path fill="none" stroke="#000000" d="M187.466,64.735l8-6"/>
		</g>
		<g>
			<path fill="none" stroke="#000000" d="M208.168,74.824V47.287"/>
			<path fill="none" stroke="#000000" d="M214.285,49.476l-8-6"/>
			<path fill="none" stroke="#000000" d="M206.284,49.476l8-6"/>
		</g>
		<g>
			<path fill="none" stroke="#000000" d="M232.844,61.538V34.001"/>
			<path fill="none" stroke="#000000" d="M238.96,36.189l-8-6"/>
			<path fill="none" stroke="#000000" d="M230.96,36.189l8-6"/>
		</g>
		<g>
			<path fill="none" stroke="#000000" d="M273.831,89.275V61.738"/>
			<path fill="none" stroke="#000000" d="M279.947,63.927l-8-6"/>
			<path fill="none" stroke="#000000" d="M271.947,63.927l8-6"/>
		</g>
		<g>
			<path fill="none" stroke="#000000" d="M292.649,74.015V46.479"/>
			<path fill="none" stroke="#000000" d="M298.766,48.667l-8.001-6"/>
			<path fill="none" stroke="#000000" d="M290.765,48.667l8.001-6"/>
		</g>
		<g>
			<path fill="none" stroke="#000000" d="M317.325,60.729V33.192"/>
			<path fill="none" stroke="#000000" d="M323.442,35.381l-8.001-6"/>
			<path fill="none" stroke="#000000" d="M315.441,35.381l8.001-6"/>
		</g>
		<g>
			<path fill="none" stroke="#000000" d="M350.143,89.275V61.738"/>
			<path fill="none" stroke="#000000" d="M356.258,63.927l-8-6"/>
			<path fill="none" stroke="#000000" d="M348.258,63.927l8-6"/>
		</g>
		<g>
			<path fill="none" stroke="#000000" d="M368.96,74.015V46.479"/>
			<path fill="none" stroke="#000000" d="M375.078,48.667l-8.001-6"/>
			<path fill="none" stroke="#000000" d="M367.077,48.667l8.001-6"/>
		</g>
		<g>
			<path fill="none" stroke="#000000" d="M393.636,60.729V33.192"/>
			<path fill="none" stroke="#000000" d="M399.753,35.381l-8.001-6"/>
			<path fill="none" stroke="#000000" d="M391.752,35.381l8.001-6"/>
		</g>
		<g>
			<path d="M455.718,48.276c-0.713,0-1.217-0.536-1.217-1.25s0.524-1.25,1.259-1.25s1.237,0.516,1.237,1.25
				c0,0.714-0.503,1.25-1.258,1.25H455.718z"/>
		</g>
		<g>
			<path d="M470.683,48.885c-0.713,0-1.217-0.536-1.217-1.25s0.524-1.25,1.259-1.25s1.237,0.516,1.237,1.25
				c0,0.714-0.503,1.25-1.258,1.25H470.683z"/>
		</g>
		<path fill="none" stroke="#0A0A0A" d="M338.129,34.596v29.746"/>
		<g>
			<path fill="none" stroke="#000000" d="M29.792,68.327V40.79"/>
			<path fill="none" stroke="#000000" d="M35.908,42.979l-8-6"/>
			<path fill="none" stroke="#000000" d="M27.908,42.979l8-6"/>
		</g>
		<g>
			<path d="M43.961,5.516h-3.654v3.402h4.088V9.94h-5.32V0.504h5.11v1.022h-3.878v2.982h3.654V5.516z"/>
			<path d="M50.695,8.316c0,0.588,0.028,1.162,0.098,1.624h-1.106l-0.112-0.854h-0.042c-0.364,0.532-1.106,1.008-2.072,1.008
				c-1.372,0-2.072-0.966-2.072-1.946c0-1.638,1.456-2.534,4.074-2.52v-0.14c0-0.56-0.154-1.582-1.54-1.568
				c-0.644,0-1.302,0.182-1.778,0.504l-0.28-0.826c0.56-0.35,1.386-0.588,2.24-0.588c2.086,0,2.59,1.414,2.59,2.772V8.316z
				 M49.491,6.482c-1.344-0.028-2.87,0.21-2.87,1.526c0,0.812,0.532,1.176,1.148,1.176c0.896,0,1.47-0.56,1.666-1.134
				c0.042-0.126,0.056-0.266,0.056-0.392V6.482z"/>
			<path d="M57.499,9.702c-0.322,0.154-1.036,0.392-1.946,0.392c-2.044,0-3.374-1.386-3.374-3.472s1.428-3.612,3.64-3.612
				c0.728,0,1.372,0.182,1.708,0.364l-0.28,0.938c-0.294-0.154-0.756-0.322-1.428-0.322c-1.554,0-2.394,1.162-2.394,2.576
				c0,1.568,1.008,2.534,2.352,2.534c0.7,0,1.162-0.168,1.512-0.322L57.499,9.702z"/>
			<path d="M58.941,0h1.232v4.228h0.028c0.196-0.35,0.504-0.672,0.882-0.868c0.364-0.224,0.798-0.35,1.26-0.35
				c0.91,0,2.366,0.56,2.366,2.898V9.94h-1.232V6.048c0-1.106-0.406-2.016-1.568-2.016c-0.798,0-1.414,0.56-1.652,1.232
				c-0.07,0.168-0.084,0.35-0.084,0.588V9.94h-1.232V0z"/>
			<path d="M69.679,5.376c0-0.868-0.014-1.568-0.056-2.212h1.106l0.07,1.162h0.028c0.49-0.84,1.302-1.316,2.394-1.316
				c1.652,0,2.884,1.386,2.884,3.444c0,2.436-1.498,3.64-3.08,3.64c-0.91,0-1.68-0.392-2.086-1.064h-0.028v3.682h-1.232V5.376z
				 M70.911,7.182c0,0.168,0.014,0.35,0.056,0.504c0.21,0.854,0.966,1.442,1.834,1.442c1.302,0,2.058-1.064,2.058-2.618
				c0-1.358-0.7-2.52-2.002-2.52c-0.84,0-1.638,0.588-1.876,1.512c-0.028,0.168-0.07,0.35-0.07,0.504V7.182z"/>
			<path d="M82.418,8.316c0,0.588,0.028,1.162,0.098,1.624H81.41l-0.112-0.854h-0.042c-0.364,0.532-1.106,1.008-2.072,1.008
				c-1.372,0-2.072-0.966-2.072-1.946c0-1.638,1.456-2.534,4.074-2.52v-0.14c0-0.56-0.154-1.582-1.54-1.568
				c-0.644,0-1.302,0.182-1.778,0.504l-0.28-0.826c0.56-0.35,1.386-0.588,2.24-0.588c2.086,0,2.59,1.414,2.59,2.772V8.316z
				 M81.214,6.482c-1.344-0.028-2.87,0.21-2.87,1.526c0,0.812,0.532,1.176,1.148,1.176c0.896,0,1.47-0.56,1.666-1.134
				c0.042-0.126,0.056-0.266,0.056-0.392V6.482z"/>
			<path d="M84.406,5.278c0-0.798-0.014-1.484-0.056-2.114h1.078l0.056,1.33h0.042c0.308-0.91,1.064-1.484,1.89-1.484
				c0.126,0,0.224,0.014,0.336,0.042V4.2c-0.14-0.014-0.266-0.028-0.434-0.028c-0.868,0-1.484,0.658-1.652,1.568
				c-0.028,0.182-0.042,0.378-0.042,0.588V9.94h-1.232L84.406,5.278z"/>
			<path d="M90.79,1.54v1.624h1.764v0.938H90.79v3.654c0,0.84,0.238,1.316,0.924,1.316c0.336,0,0.532-0.028,0.714-0.084l0.056,0.938
				c-0.238,0.084-0.616,0.168-1.092,0.168c-0.574,0-1.036-0.196-1.33-0.518c-0.336-0.378-0.476-0.98-0.476-1.778V4.102h-1.05V3.164
				h1.05V1.918L90.79,1.54z"/>
			<path d="M249.026,9.646c-0.434,0.224-1.344,0.448-2.492,0.448c-2.66,0-4.648-1.68-4.648-4.788c0-2.968,2.002-4.956,4.928-4.956
				c1.162,0,1.918,0.252,2.24,0.42l-0.308,0.994c-0.448-0.224-1.106-0.392-1.89-0.392c-2.212,0-3.682,1.414-3.682,3.892
				c0,2.324,1.33,3.794,3.612,3.794c0.756,0,1.512-0.154,2.002-0.392L249.026,9.646z"/>
			<path d="M253.1,10.094c-1.82,0-3.248-1.344-3.248-3.486c0-2.268,1.498-3.598,3.36-3.598c1.946,0,3.262,1.414,3.262,3.472
				c0,2.52-1.75,3.612-3.36,3.612H253.1z M253.142,9.17c1.176,0,2.058-1.106,2.058-2.646c0-1.148-0.574-2.59-2.03-2.59
				c-1.442,0-2.072,1.344-2.072,2.632c0,1.484,0.84,2.604,2.03,2.604H253.142z"/>
			<path d="M258.028,4.998c0-0.714-0.028-1.274-0.056-1.834h1.078l0.056,1.092h0.042c0.378-0.644,1.008-1.246,2.142-1.246
				c0.91,0,1.61,0.56,1.904,1.358h0.028c0.21-0.392,0.49-0.672,0.77-0.882c0.406-0.308,0.84-0.476,1.484-0.476
				c0.91,0,2.24,0.588,2.24,2.94v3.99h-1.204V6.104c0-1.316-0.49-2.086-1.47-2.086c-0.714,0-1.246,0.518-1.47,1.106
				c-0.056,0.182-0.098,0.406-0.098,0.616v4.2h-1.204V5.88c0-1.092-0.476-1.862-1.414-1.862c-0.756,0-1.33,0.616-1.526,1.232
				c-0.07,0.182-0.098,0.392-0.098,0.602V9.94h-1.204V4.998z"/>
			<path d="M269.704,0h1.232v4.242h0.028c0.434-0.756,1.218-1.232,2.31-1.232c1.68,0,2.856,1.4,2.856,3.444
				c0,2.436-1.54,3.64-3.052,3.64c-0.98,0-1.75-0.378-2.268-1.274h-0.028l-0.07,1.12h-1.064c0.042-0.462,0.056-1.148,0.056-1.75V0z
				 M270.936,7.224c0,0.154,0.014,0.308,0.042,0.448c0.238,0.854,0.966,1.442,1.848,1.442c1.302,0,2.058-1.05,2.058-2.604
				c0-1.372-0.7-2.534-2.016-2.534c-0.84,0-1.624,0.588-1.862,1.512c-0.042,0.154-0.07,0.322-0.07,0.518V7.224z"/>
			<path d="M278.258,1.918c-0.462,0-0.77-0.364-0.77-0.798s0.322-0.784,0.798-0.784c0.476,0,0.784,0.35,0.784,0.784
				s-0.308,0.798-0.798,0.798H278.258z M277.67,9.94V3.164h1.232V9.94H277.67z"/>
			<path d="M280.946,4.998c0-0.714-0.014-1.274-0.056-1.834h1.092l0.07,1.106h0.028c0.336-0.63,1.12-1.26,2.24-1.26
				c0.938,0,2.394,0.56,2.394,2.884V9.94h-1.231V6.034c0-1.092-0.406-2.016-1.568-2.016c-0.798,0-1.428,0.574-1.652,1.26
				c-0.056,0.154-0.084,0.378-0.084,0.574V9.94h-1.232V4.998z"/>
			<path d="M289.416,6.762c0.028,1.666,1.078,2.352,2.311,2.352c0.882,0,1.428-0.154,1.876-0.336l0.224,0.868
				c-0.434,0.196-1.19,0.434-2.268,0.434c-2.072,0-3.332-1.386-3.332-3.416c0-2.058,1.218-3.668,3.191-3.668
				c2.212,0,2.786,1.946,2.786,3.192c0,0.252-0.014,0.448-0.042,0.588L289.416,6.762z M293.014,5.88
				c0.014-0.77-0.322-2.002-1.694-2.002c-1.26,0-1.792,1.148-1.89,2.002H293.014z"/>
			<path d="M301.582,0v8.19c0,0.602,0.014,1.288,0.056,1.75h-1.105l-0.056-1.176h-0.028c-0.378,0.756-1.19,1.33-2.296,1.33
				c-1.639,0-2.912-1.386-2.912-3.444c-0.014-2.268,1.399-3.64,3.038-3.64c1.05,0,1.75,0.49,2.044,1.022h0.028V0H301.582z
				 M300.35,5.922c0-0.168-0.015-0.364-0.057-0.532c-0.182-0.77-0.854-1.414-1.777-1.414c-1.274,0-2.03,1.12-2.03,2.604
				c0,1.386,0.686,2.52,2.002,2.52c0.826,0,1.582-0.56,1.806-1.47c0.042-0.168,0.057-0.336,0.057-0.532V5.922z"/>
			<path d="M306.635,0.63c0.588-0.112,1.358-0.196,2.338-0.196c1.204,0,2.086,0.28,2.646,0.784c0.518,0.448,0.84,1.134,0.84,1.974
				c0,0.854-0.252,1.526-0.742,2.016c-0.644,0.686-1.693,1.036-2.884,1.036c-0.364,0-0.7-0.014-0.98-0.084v3.78h-1.218V0.63z
				 M307.853,5.166c0.267,0.07,0.616,0.098,1.009,0.098c1.483,0,2.365-0.728,2.365-2.002c0-1.26-0.882-1.862-2.226-1.862
				c-0.532,0-0.938,0.056-1.148,0.098V5.166z"/>
			<path d="M318.452,8.316c0,0.588,0.028,1.162,0.098,1.624h-1.105l-0.112-0.854h-0.042c-0.364,0.532-1.105,1.008-2.072,1.008
				c-1.372,0-2.071-0.966-2.071-1.946c0-1.638,1.456-2.534,4.073-2.52v-0.14c0-0.56-0.153-1.582-1.54-1.568
				c-0.644,0-1.302,0.182-1.777,0.504l-0.28-0.826c0.56-0.35,1.386-0.588,2.24-0.588c2.086,0,2.59,1.414,2.59,2.772V8.316z
				 M317.248,6.482c-1.344-0.028-2.87,0.21-2.87,1.526c0,0.812,0.532,1.176,1.148,1.176c0.896,0,1.47-0.56,1.666-1.134
				c0.042-0.126,0.056-0.266,0.056-0.392V6.482z"/>
			<path d="M320.44,5.278c0-0.798-0.015-1.484-0.057-2.114h1.078l0.056,1.33h0.042c0.309-0.91,1.064-1.484,1.891-1.484
				c0.126,0,0.224,0.014,0.336,0.042V4.2c-0.141-0.014-0.266-0.028-0.435-0.028c-0.867,0-1.483,0.658-1.651,1.568
				c-0.028,0.182-0.042,0.378-0.042,0.588V9.94h-1.232L320.44,5.278z"/>
			<path d="M326.824,1.54v1.624h1.764v0.938h-1.764v3.654c0,0.84,0.237,1.316,0.924,1.316c0.336,0,0.531-0.028,0.714-0.084
				l0.056,0.938c-0.238,0.084-0.616,0.168-1.092,0.168c-0.574,0-1.036-0.196-1.33-0.518c-0.336-0.378-0.476-0.98-0.476-1.778V4.102
				h-1.051V3.164h1.051V1.918L326.824,1.54z"/>
			<path d="M329.805,8.694c0.378,0.224,1.022,0.476,1.638,0.476c0.882,0,1.303-0.434,1.303-1.008c0-0.588-0.351-0.91-1.246-1.246
				c-1.232-0.448-1.807-1.106-1.807-1.918c0-1.092,0.896-1.988,2.338-1.988c0.687,0,1.288,0.182,1.652,0.42l-0.294,0.882
				c-0.266-0.154-0.756-0.392-1.386-0.392c-0.729,0-1.12,0.42-1.12,0.924c0,0.574,0.392,0.826,1.273,1.162
				c1.162,0.434,1.778,1.022,1.778,2.044c0,1.204-0.938,2.044-2.52,2.044c-0.742,0-1.429-0.196-1.904-0.476L329.805,8.694z"/>
		</g>
		<g>
			<path fill="none" stroke="#000000" d="M51.866,36.29l2.958,2.637"/>
			<path fill="none" stroke="#000000" stroke-width="4" d="M51.153,44.933l4.538-5.852"/>
			<path fill="none" stroke="#000000" d="M50.815,44.259l5.313,3.84"/>
			<path fill="none" stroke="#000000" d="M53.985,53.29l-2.493-3.285"/>
			<g>
				<g>
					<path fill="none" d="M55.932,48.34c-1.48-0.457-3.169-0.31-4.221,1.149"/>
					<path d="M56.276,47.409c-2.036-0.582-4.036-0.218-5.378,1.511c-0.787,1.013,0.842,2.146,1.625,1.139
						c0.763-0.981,1.924-1.114,3.063-0.788C56.813,49.621,57.506,47.761,56.276,47.409z"/>
				</g>
			</g>
		</g>
		<g>
			<path fill="none" stroke="#000000" d="M73.944,36.29l2.958,2.637"/>
			<path fill="none" stroke="#000000" stroke-width="4" d="M73.231,44.933l4.538-5.852"/>
			<path fill="none" stroke="#000000" d="M72.893,44.259l5.313,3.84"/>
			<path fill="none" stroke="#000000" d="M76.063,53.29l-2.493-3.285"/>
			<g>
				<g>
					<path fill="none" d="M78.009,48.34c-1.48-0.457-3.169-0.31-4.221,1.149"/>
					<path d="M78.354,47.409c-2.036-0.582-4.036-0.218-5.378,1.511c-0.787,1.013,0.842,2.146,1.625,1.139
						c0.763-0.981,1.924-1.114,3.063-0.788C78.89,49.621,79.583,47.761,78.354,47.409z"/>
				</g>
			</g>
		</g>
		<g>
			<path d="M176.485,411.619v1.584c0,0.96,1.128,0.937,1.128,0.937v0.624h-5.208v-0.624c0,0,1.176,0.048,1.152-0.888v-1.633h-4.44
				l-0.432-0.456c2.904-3.911,2.928-4.632,3.624-8.184h4.152c-0.984,1.824-4.296,5.256-6.624,7.968h3.72v-2.952l2.928-3.216v6.168
				h1.728v0.672H176.485z"/>
		</g>
		<path fill="none" stroke="#000000" d="M152.043,388.158h281.386"/>
		<path fill="none" stroke="#000000" d="M152.043,402.269h281.386"/>
		<path fill="none" stroke="#000000" d="M151.968,416.775h281.385"/>
		<path fill="none" stroke="#0A0A0A" d="M290.258,269.193v29.746"/>
		<g>
			<path d="M445.03,404.081c-0.713,0-1.217-0.535-1.217-1.249s0.524-1.249,1.259-1.249s1.237,0.516,1.237,1.249
				c0,0.714-0.503,1.249-1.258,1.249H445.03z"/>
		</g>
		<path fill="none" stroke="#000000" stroke-width="2" d="M159.077,395.226v14"/>
		<path fill="none" stroke="#000000" stroke-width="2" d="M155.479,395.226v14"/>
		<g>
			<path fill="none" stroke="#000000" d="M194.337,445.447V417.91"/>
			<path fill="none" stroke="#000000" d="M200.453,420.099l-8-6"/>
			<path fill="none" stroke="#000000" d="M192.453,420.099l8-6"/>
		</g>
		<g>
			<path fill="none" stroke="#000000" d="M213.155,430.187v-27.536"/>
			<path fill="none" stroke="#000000" d="M219.271,404.839l-8-6"/>
			<path fill="none" stroke="#000000" d="M211.271,404.839l8-6"/>
		</g>
		<g>
			<path fill="none" stroke="#000000" d="M184.546,324.586v-27.537"/>
			<path fill="none" stroke="#000000" d="M190.662,299.238l-8.001-6"/>
			<path fill="none" stroke="#000000" d="M182.661,299.238l8.001-6"/>
		</g>
		<g>
			<path fill="none" stroke="#000000" d="M260.818,444.638v-27.537"/>
			<path fill="none" stroke="#000000" d="M266.934,419.291l-8-6"/>
			<path fill="none" stroke="#000000" d="M258.934,419.291l8-6"/>
		</g>
		<g>
			<path fill="none" stroke="#000000" d="M284.636,429.378v-27.536"/>
			<path fill="none" stroke="#000000" d="M290.753,404.031l-8.002-6"/>
			<path fill="none" stroke="#000000" d="M282.751,404.031l8.002-6"/>
		</g>
		<g>
			<path fill="none" stroke="#000000" d="M336.13,444.638v-27.537"/>
			<path fill="none" stroke="#000000" d="M342.246,419.291l-8-6"/>
			<path fill="none" stroke="#000000" d="M334.246,419.291l8-6"/>
		</g>
		<g>
			<path fill="none" stroke="#000000" d="M361.947,429.378v-27.536"/>
			<path fill="none" stroke="#000000" d="M368.064,404.031l-8-6"/>
			<path fill="none" stroke="#000000" d="M360.064,404.031l8-6"/>
		</g>
		<g>
			<path fill="none" stroke="#000000" d="M396.05,445.171v-27.537"/>
			<path fill="none" stroke="#000000" d="M402.167,419.824l-8-6"/>
			<path fill="none" stroke="#000000" d="M394.167,419.824l8-6"/>
		</g>
		<g>
			<path d="M460.706,403.639c-0.713,0-1.217-0.535-1.217-1.249s0.524-1.249,1.259-1.249s1.237,0.516,1.237,1.249
				c0,0.714-0.503,1.249-1.258,1.249H460.706z"/>
		</g>
		<g>
			<path d="M475.67,404.249c-0.713,0-1.217-0.535-1.217-1.249s0.524-1.249,1.259-1.249s1.237,0.516,1.237,1.249
				c0,0.714-0.503,1.249-1.258,1.249H475.67z"/>
		</g>
		<path fill="none" stroke="#0A0A0A" d="M381.181,387.181v29.746"/>
		<g>
			<path fill="none" stroke="#000000" d="M311.763,359.411v27.536"/>
			<path fill="none" stroke="#000000" d="M305.648,384.758l8,6"/>
			<path fill="none" stroke="#000000" d="M313.648,384.758l-8,6"/>
		</g>
		<g>
			<path fill="none" stroke="#000000" d="M400.076,359.411v27.536"/>
			<path fill="none" stroke="#000000" d="M393.96,384.758l8,6"/>
			<path fill="none" stroke="#000000" d="M401.96,384.758l-8,6"/>
		</g>
		<g>
			<path fill="none" stroke="#000000" d="M2.184,425.708v-27.536"/>
			<path fill="none" stroke="#000000" d="M8.3,400.361l-8-6"/>
			<path fill="none" stroke="#000000" d="M0.3,400.361l8-6"/>
		</g>
		<g>
			<path fill="none" stroke="#000000" d="M17.258,393.672l2.958,2.638"/>
			<path fill="none" stroke="#000000" stroke-width="4" d="M16.545,402.315l4.538-5.852"/>
			<path fill="none" stroke="#000000" d="M16.207,401.641l5.313,3.84"/>
			<path fill="none" stroke="#000000" d="M19.377,410.673l-2.493-3.286"/>
			<g>
				<g>
					<path fill="none" d="M21.323,405.722c-1.48-0.457-3.169-0.31-4.221,1.149"/>
					<path d="M21.667,404.792c-2.036-0.582-4.035-0.218-5.378,1.511c-0.786,1.013,0.843,2.146,1.626,1.139
						c0.762-0.981,1.924-1.113,3.063-0.788C22.204,407.003,22.898,405.144,21.667,404.792z"/>
				</g>
			</g>
		</g>
		<g>
			<path fill="none" stroke="#000000" d="M37.335,393.672l2.958,2.638"/>
			<path fill="none" stroke="#000000" stroke-width="4" d="M36.623,402.315l4.538-5.852"/>
			<path fill="none" stroke="#000000" d="M36.285,401.641l5.313,3.84"/>
			<path fill="none" stroke="#000000" d="M39.455,410.673l-2.492-3.286"/>
			<g>
				<g>
					<path fill="none" d="M41.401,405.722c-1.48-0.457-3.169-0.31-4.221,1.149"/>
					<path d="M41.746,404.792c-2.036-0.582-4.035-0.218-5.378,1.511c-0.787,1.013,0.843,2.146,1.625,1.139
						c0.763-0.981,1.924-1.113,3.063-0.788C42.282,407.003,42.975,405.144,41.746,404.792z"/>
				</g>
			</g>
		</g>
		<g>
			<path fill="none" stroke="#000000" d="M53.521,427.306V399.77"/>
			<path fill="none" stroke="#000000" d="M59.638,401.958l-8-6"/>
			<path fill="none" stroke="#000000" d="M51.638,401.958l8-6"/>
		</g>
		<g>
			<path fill="none" stroke="#000000" d="M69.596,395.27l2.958,2.638"/>
			<path fill="none" stroke="#000000" stroke-width="4" d="M68.883,403.913l4.538-5.852"/>
			<path fill="none" stroke="#000000" d="M68.545,403.239l5.313,3.84"/>
			<path fill="none" stroke="#000000" d="M71.715,412.271l-2.493-3.286"/>
			<g>
				<g>
					<path fill="none" d="M73.661,407.32c-1.48-0.457-3.169-0.31-4.221,1.149"/>
					<path d="M74.005,406.389c-2.036-0.582-4.035-0.218-5.378,1.511c-0.786,1.013,0.843,2.146,1.626,1.139
						c0.762-0.981,1.924-1.113,3.063-0.788C74.542,408.601,75.236,406.742,74.005,406.389z"/>
				</g>
			</g>
		</g>
		<g>
			<path fill="none" stroke="#000000" d="M86.673,395.27l2.958,2.638"/>
			<path fill="none" stroke="#000000" stroke-width="4" d="M85.96,403.913l4.538-5.852"/>
			<path fill="none" stroke="#000000" d="M85.623,403.239l5.313,3.84"/>
			<path fill="none" stroke="#000000" d="M88.792,412.271l-2.492-3.286"/>
			<g>
				<g>
					<path fill="none" d="M90.739,407.32c-1.48-0.457-3.169-0.31-4.221,1.149"/>
					<path d="M91.083,406.389c-2.036-0.582-4.035-0.218-5.378,1.511c-0.787,1.013,0.843,2.146,1.625,1.139
						c0.763-0.981,1.924-1.113,3.063-0.788C91.62,408.601,92.313,406.742,91.083,406.389z"/>
				</g>
			</g>
		</g>
		<g>
			<path fill="none" stroke="#000000" d="M104.909,426.989v-27.536"/>
			<path fill="none" stroke="#000000" d="M111.025,401.641l-8-6"/>
			<path fill="none" stroke="#000000" d="M103.025,401.641l8-6"/>
		</g>
		<g>
			<path fill="none" stroke="#000000" d="M120.983,394.953l2.957,2.638"/>
			<path fill="none" stroke="#000000" stroke-width="4" d="M120.271,403.595l4.537-5.852"/>
			<path fill="none" stroke="#000000" d="M119.933,402.921l5.313,3.84"/>
			<path fill="none" stroke="#000000" d="M123.103,411.954l-2.493-3.286"/>
			<g>
				<g>
					<path fill="none" d="M125.048,407.002c-1.48-0.457-3.168-0.31-4.221,1.149"/>
					<path d="M125.393,406.072c-2.036-0.582-4.035-0.217-5.378,1.511c-0.787,1.013,0.842,2.146,1.625,1.139
						c0.763-0.981,1.924-1.114,3.063-0.788C125.929,408.284,126.622,406.423,125.393,406.072z"/>
				</g>
			</g>
		</g>
		<g>
			<path fill="none" stroke="#000000" d="M169.337,325.051v-27.537"/>
			<path fill="none" stroke="#000000" d="M175.454,299.703l-8-6"/>
			<path fill="none" stroke="#000000" d="M167.454,299.703l8-6"/>
		</g>
		<g>
			<path fill="none" stroke="#000000" d="M91.749,263.445l2.959,2.637"/>
			<path fill="none" stroke="#000000" stroke-width="4" d="M91.036,272.088l4.539-5.852"/>
			<path fill="none" stroke="#000000" d="M90.698,271.414l5.313,3.84"/>
			<path fill="none" stroke="#000000" d="M93.868,280.446l-2.492-3.286"/>
			<g>
				<g>
					<path fill="none" d="M95.815,275.495c-1.48-0.457-3.17-0.31-4.221,1.149"/>
					<path d="M96.16,274.564c-2.035-0.582-4.036-0.218-5.378,1.511c-0.786,1.013,0.843,2.146,1.625,1.138
						c0.762-0.981,1.925-1.113,3.063-0.788C96.696,276.776,97.389,274.917,96.16,274.564z"/>
				</g>
			</g>
		</g>
		<path fill="none" stroke="#000000" d="M169.337,325.051l14.129-0.465"/>
		<path fill="none" stroke="#000000" d="M136.563,268.871h290.111"/>
		<path fill="none" stroke="#000000" d="M136.563,282.983h290.111"/>
		<path fill="none" stroke="#000000" d="M136.487,297.489h290.111"/>
		<path fill="none" stroke="#000000" stroke-width="2" d="M143.596,275.939v14"/>
		<path fill="none" stroke="#000000" stroke-width="2" d="M139.999,275.939v14"/>
		<g>
			<path fill="none" stroke="#000000" d="M248.794,311.031v-27.537"/>
			<path fill="none" stroke="#000000" d="M254.909,285.683l-8-6"/>
			<path fill="none" stroke="#000000" d="M246.909,285.683l8-6"/>
		</g>
		<g>
			<path fill="none" stroke="#000000" d="M73.57,291.446V263.91"/>
			<path fill="none" stroke="#000000" d="M79.687,266.098l-8-6"/>
			<path fill="none" stroke="#000000" d="M71.687,266.098l8-6"/>
		</g>
		<g>
			<path fill="none" stroke="#000000" d="M204.363,254.111v27.537"/>
			<path fill="none" stroke="#000000" d="M198.246,279.458l8,6"/>
			<path fill="none" stroke="#000000" d="M206.246,279.458l-8,6"/>
		</g>
		<g>
			<path d="M445.666,283.302c-0.713,0-1.217-0.536-1.217-1.25s0.524-1.25,1.259-1.25s1.237,0.516,1.237,1.25
				c0,0.714-0.503,1.25-1.258,1.25H445.666z"/>
		</g>
		<g>
			<path d="M461.341,282.86c-0.713,0-1.217-0.536-1.217-1.25s0.524-1.25,1.259-1.25s1.237,0.516,1.237,1.25
				c0,0.714-0.503,1.25-1.258,1.25H461.341z"/>
		</g>
		<g>
			<path d="M476.306,283.47c-0.713,0-1.217-0.536-1.217-1.25s0.524-1.25,1.259-1.25s1.237,0.516,1.237,1.25
				c0,0.714-0.503,1.25-1.258,1.25H476.306z"/>
		</g>
		<g>
			<path fill="none" stroke="#000000" d="M218.35,254.411v27.537"/>
			<path fill="none" stroke="#000000" d="M212.233,279.758l8,6"/>
			<path fill="none" stroke="#000000" d="M220.233,279.758l-8,6"/>
		</g>
		<g>
			<path fill="none" stroke="#000000" d="M268.504,197.155v-27.536"/>
			<path fill="none" stroke="#000000" d="M274.621,171.807l-8.002-6"/>
			<path fill="none" stroke="#000000" d="M266.619,171.807l8.002-6"/>
		</g>
		<path fill="none" stroke="#000000" d="M122.39,141.534h316.738"/>
		<path fill="none" stroke="#000000" d="M122.39,155.646h316.738"/>
		<path fill="none" stroke="#000000" d="M122.306,170.152h316.738"/>
		<path fill="none" stroke="#0A0A0A" d="M250.7,140.648v29.746"/>
		<g>
			<path d="M447.367,157.458c-0.713,0-1.217-0.536-1.217-1.25s0.524-1.25,1.259-1.25s1.237,0.516,1.237,1.25
				c0,0.714-0.503,1.25-1.258,1.25H447.367z"/>
		</g>
		<path fill="none" stroke="#000000" stroke-width="2" d="M129.415,148.602v14"/>
		<path fill="none" stroke="#000000" stroke-width="2" d="M125.817,148.602v14"/>
		<g>
			<path fill="none" stroke="#000000" d="M164.675,198.824v-27.537"/>
			<path fill="none" stroke="#000000" d="M170.791,173.476l-8-6"/>
			<path fill="none" stroke="#000000" d="M162.791,173.476l8-6"/>
		</g>
		<g>
			<path fill="none" stroke="#000000" d="M183.493,183.564v-27.537"/>
			<path fill="none" stroke="#000000" d="M189.609,158.216l-8-6"/>
			<path fill="none" stroke="#000000" d="M181.609,158.216l8-6"/>
		</g>
		<g>
			<path fill="none" stroke="#000000" d="M228.155,198.015v-27.537"/>
			<path fill="none" stroke="#000000" d="M234.272,172.667l-8-6"/>
			<path fill="none" stroke="#000000" d="M226.272,172.667l8-6"/>
		</g>
		<g>
			<path fill="none" stroke="#000000" d="M292.282,184.167v-27.536"/>
			<path fill="none" stroke="#000000" d="M298.399,158.82l-8-6"/>
			<path fill="none" stroke="#000000" d="M290.399,158.82l8-6"/>
		</g>
		<g>
			<path fill="none" stroke="#000000" d="M335.467,198.015v-27.537"/>
			<path fill="none" stroke="#000000" d="M341.583,172.667l-8-6"/>
			<path fill="none" stroke="#000000" d="M333.583,172.667l8-6"/>
		</g>
		<g>
			<path fill="none" stroke="#000000" d="M370.286,197.755v-27.537"/>
			<path fill="none" stroke="#000000" d="M376.403,172.408l-8.002-6"/>
			<path fill="none" stroke="#000000" d="M368.401,172.408l8.002-6"/>
		</g>
		<g>
			<path fill="none" stroke="#000000" d="M394.559,183.755v-27.537"/>
			<path fill="none" stroke="#000000" d="M400.676,158.407l-8.002-6"/>
			<path fill="none" stroke="#000000" d="M392.674,158.407l8.002-6"/>
		</g>
		<g>
			<path d="M463.042,157.017c-0.713,0-1.217-0.536-1.217-1.25s0.524-1.25,1.259-1.25s1.237,0.516,1.237,1.25
				c0,0.714-0.503,1.25-1.258,1.25H463.042z"/>
		</g>
		<g>
			<path d="M478.007,157.626c-0.713,0-1.217-0.536-1.217-1.25s0.524-1.25,1.259-1.25s1.237,0.516,1.237,1.25
				c0,0.714-0.503,1.25-1.258,1.25H478.007z"/>
		</g>
		<path fill="none" stroke="#0A0A0A" d="M353.532,140.739v29.747"/>
		<g>
			<path fill="none" stroke="#000000" d="M5.117,177.067V149.53"/>
			<path fill="none" stroke="#000000" d="M11.233,151.719l-8-6"/>
			<path fill="none" stroke="#000000" d="M3.233,151.719l8-6"/>
		</g>
		<g>
			<path fill="none" stroke="#000000" d="M27.191,145.03l2.958,2.637"/>
			<path fill="none" stroke="#000000" stroke-width="4" d="M26.478,153.673l4.538-5.852"/>
			<path fill="none" stroke="#000000" d="M26.14,152.999l5.313,3.84"/>
			<path fill="none" stroke="#000000" d="M29.31,162.031l-2.493-3.285"/>
			<g>
				<g>
					<path fill="none" d="M31.256,157.08c-1.48-0.457-3.169-0.309-4.221,1.15"/>
					<path d="M31.601,156.149c-2.036-0.582-4.035-0.217-5.378,1.512c-0.786,1.013,0.843,2.146,1.626,1.139
						c0.762-0.981,1.924-1.115,3.063-0.789C32.137,158.361,32.831,156.5,31.601,156.149z"/>
				</g>
			</g>
		</g>
		<g>
			<path fill="none" stroke="#000000" d="M49.269,145.03l2.958,2.637"/>
			<path fill="none" stroke="#000000" stroke-width="4" d="M48.556,153.673l4.538-5.852"/>
			<path fill="none" stroke="#000000" d="M48.218,152.999l5.313,3.84"/>
			<path fill="none" stroke="#000000" d="M51.388,162.031l-2.493-3.285"/>
			<g>
				<g>
					<path fill="none" d="M53.334,157.08c-1.48-0.457-3.169-0.309-4.221,1.15"/>
					<path d="M53.678,156.149c-2.036-0.582-4.035-0.217-5.378,1.512c-0.786,1.013,0.843,2.146,1.626,1.139
						c0.762-0.981,1.924-1.115,3.063-0.789C54.214,158.361,54.909,156.5,53.678,156.149z"/>
				</g>
			</g>
		</g>
		<g>
			<path fill="none" stroke="#000000" d="M73.245,176.802v-27.537"/>
			<path fill="none" stroke="#000000" d="M79.361,151.454l-8-6"/>
			<path fill="none" stroke="#000000" d="M71.361,151.454l8-6"/>
		</g>
		<g>
			<path d="M149.237,153.273c0,0.96-1.2,1.8-1.848,1.8s-2.04-0.36-2.04-1.8c0-0.936,0.672-1.632,1.512-1.632
				c0.576,0,0.528-0.36,0.336-0.576c-0.528-0.552-1.488-0.96-2.664-0.624c-1.896,0.504-2.304,2.808-2.304,5.184
				c0,2.64,0.456,5.256,2.76,5.256c1.632,0,3.456-1.488,3.408-3.528h0.672c-0.024,0.624-0.432,1.92-0.84,2.424
				c-0.816,1.008-2.328,1.848-3.504,1.848c-3.168,0-5.424-2.856-5.424-6c0-3.072,2.112-5.904,5.184-5.904
				C147.077,149.721,149.237,150.945,149.237,153.273z"/>
		</g>
		<g>
			<path fill="none" stroke="#000000" d="M272.542,127.12v27.537"/>
			<path fill="none" stroke="#000000" d="M266.427,152.467l7.998,6"/>
			<path fill="none" stroke="#000000" d="M274.425,152.467l-7.998,6"/>
		</g>
		<g>
			<path fill="none" stroke="#000000" d="M374.231,127.354v27.536"/>
			<path fill="none" stroke="#000000" d="M368.116,152.7l7.998,6"/>
			<path fill="none" stroke="#000000" d="M376.114,152.7l-7.998,6"/>
		</g>
		<g>
			<path fill="none" stroke="#000000" d="M295.243,113.613v27.536"/>
			<path fill="none" stroke="#000000" d="M289.127,138.96l7.998,6"/>
			<path fill="none" stroke="#000000" d="M297.125,138.96l-7.998,6"/>
		</g>
		<g>
			<path fill="none" stroke="#000000" d="M397.256,113.613v27.536"/>
			<path fill="none" stroke="#000000" d="M391.141,138.959l7.998,6"/>
			<path fill="none" stroke="#000000" d="M399.139,138.959l-7.998,6"/>
		</g>
		<g>
			<path fill="none" stroke="#000000" d="M209.673,113.249v27.537"/>
			<path fill="none" stroke="#000000" d="M203.558,138.596l7.998,6"/>
			<path fill="none" stroke="#000000" d="M211.556,138.596l-7.998,6"/>
		</g>
		<g>
			<path fill="none" stroke="#000000" d="M318.465,112.249v27.537"/>
			<path fill="none" stroke="#000000" d="M312.35,137.596l7.998,6"/>
			<path fill="none" stroke="#000000" d="M320.348,137.596l-7.998,6"/>
		</g>
		<g>
			<path fill="none" stroke="#000000" d="M420.362,112.548v27.537"/>
			<path fill="none" stroke="#000000" d="M414.247,137.895l7.998,6"/>
			<path fill="none" stroke="#000000" d="M422.245,137.895l-7.998,6"/>
		</g>
		<g>
			<path fill="none" stroke="#000000" d="M431.819,197.937V170.4"/>
			<path fill="none" stroke="#000000" d="M437.934,172.589l-8-6"/>
			<path fill="none" stroke="#000000" d="M429.934,172.589l8-6"/>
		</g>
		<path fill="none" stroke="#000000" d="M205.104,254.249l14.129-0.466"/>
		<g>
			<path fill="none" stroke="#000000" d="M24.221,292.952v-27.537"/>
			<path fill="none" stroke="#000000" d="M30.338,267.605l-8.002-6"/>
			<path fill="none" stroke="#000000" d="M22.336,267.605l8.002-6"/>
		</g>
		<g>
			<path fill="none" stroke="#000000" d="M9.013,293.418v-27.537"/>
			<path fill="none" stroke="#000000" d="M15.129,268.07l-8-6"/>
			<path fill="none" stroke="#000000" d="M7.129,268.07l8-6"/>
		</g>
		<path fill="none" stroke="#000000" d="M9.013,293.418l14.129-0.466"/>
		<g>
			<g>
				<path d="M39.672,271.041c0,0.859-0.392,1.555-0.877,1.555c-0.482,0-0.876-0.696-0.876-1.555c0-0.858,0.394-1.555,0.876-1.555
					C39.28,269.486,39.672,270.183,39.672,271.041z"/>
				<g>
					<g>
						<path fill="none" d="M39.322,270.004c1.752,2.073,3.154,2.073,4.558-0.518"/>
						<path d="M38.944,270.325c0.704,0.807,1.59,1.694,2.741,1.664c1.249-0.034,2.055-1.247,2.602-2.218
							c0.312-0.553-0.498-1.127-0.813-0.569c-0.379,0.673-0.851,1.56-1.657,1.779c-0.831,0.227-1.654-0.768-2.116-1.297
							C39.281,269.202,38.522,269.842,38.944,270.325z"/>
					</g>
				</g>
				<g>
					<g>
						<path fill="none" d="M38.62,281.926c1.403-4.146,3.507-7.775,4.908-11.922"/>
						<path d="M39.085,282.098c1.429-4.061,3.481-7.86,4.908-11.921c0.213-0.604-0.718-0.948-0.93-0.345
							c-1.428,4.062-3.479,7.862-4.909,11.922C37.942,282.358,38.873,282.702,39.085,282.098z"/>
					</g>
				</g>
			</g>
			<path stroke="#000000" stroke-width="0.5" d="M39.672,271.041c0,0.915-0.66,1.656-1.477,1.656c-0.815,0-1.477-0.742-1.477-1.656
				s0.661-1.656,1.477-1.656C39.012,269.385,39.672,270.126,39.672,271.041z"/>
		</g>
		<g>
			<g>
				<path fill="none" stroke="#000000" d="M53.168,293.417v-27.536"/>
				<path fill="none" stroke="#000000" d="M59.285,268.068l-8-6"/>
				<path fill="none" stroke="#000000" d="M51.285,268.068l8-6"/>
			</g>
			<g>
				<g>
					<path fill="none" d="M54.06,291.98c2.619-5.497,9.169-10.209,3.93-15.706"/>
					<path d="M54.736,292.706c1.704-3.329,4.449-6.104,5.654-9.679c0.871-2.583-0.545-4.756-2.15-6.625
						c-0.414-0.48-1.407-1.312-0.5-0.256c4.363,5.081-2.096,10.689-4.357,15.108C53.221,291.57,54.77,292.641,54.736,292.706z"/>
				</g>
			</g>
		</g>
		<g>
			<path fill="none" stroke="#000000" d="M236.116,326.005v-27.537"/>
			<path fill="none" stroke="#000000" d="M242.231,300.656l-8-6"/>
			<path fill="none" stroke="#000000" d="M234.231,300.656l8-6"/>
		</g>
		<g>
			<g>
				<path fill="none" stroke="#000000" d="M214.714,325.976v-27.537"/>
				<path fill="none" stroke="#000000" d="M220.83,300.626l-8-6"/>
				<path fill="none" stroke="#000000" d="M212.83,300.626l8-6"/>
			</g>
			<g>
				<g>
					<path fill="none" d="M215.605,324.538c2.619-5.496,9.169-10.209,3.93-15.706"/>
					<path d="M216.282,325.264c1.704-3.329,4.448-6.104,5.654-9.679c0.871-2.583-0.545-4.756-2.151-6.625
						c-0.413-0.48-1.407-1.311-0.5-0.255c4.363,5.08-2.095,10.689-4.356,15.107C214.767,324.128,216.316,325.198,216.282,325.264z"
						/>
				</g>
			</g>
		</g>
		<g>
			<path fill="none" stroke="#000000" d="M238.674,240.455v27.537"/>
			<path fill="none" stroke="#000000" d="M232.557,265.802l8,6"/>
			<path fill="none" stroke="#000000" d="M240.557,265.802l-8,6"/>
		</g>
		<g>
			<path fill="none" stroke="#000000" d="M252.661,240.754v27.536"/>
			<path fill="none" stroke="#000000" d="M246.543,266.101l8,6"/>
			<path fill="none" stroke="#000000" d="M254.543,266.101l-8,6"/>
		</g>
		<path fill="none" stroke="#000000" d="M239.415,240.593l14.129-0.466"/>
		<g>
			<path fill="none" stroke="#000000" d="M302.792,240.645v27.537"/>
			<path fill="none" stroke="#000000" d="M296.674,265.992l8,6"/>
			<path fill="none" stroke="#000000" d="M304.674,265.992l-8,6"/>
		</g>
		<path fill="none" stroke="#0A0A0A" d="M236.116,327.005l12.558-18.013"/>
		<g>
			<g>
				<path d="M200.672,294.041c0,0.859-0.393,1.555-0.877,1.555c-0.482,0-0.877-0.696-0.877-1.555c0-0.858,0.395-1.555,0.877-1.555
					C200.28,292.486,200.672,293.183,200.672,294.041z"/>
				<g>
					<g>
						<path fill="none" d="M200.323,293.004c1.752,2.073,3.154,2.073,4.557-0.518"/>
						<path d="M199.945,293.325c0.703,0.807,1.59,1.694,2.74,1.664c1.249-0.034,2.055-1.247,2.601-2.218
							c0.312-0.553-0.499-1.127-0.813-0.569c-0.379,0.673-0.85,1.56-1.656,1.779c-0.831,0.227-1.654-0.768-2.116-1.297
							C200.281,292.202,199.523,292.842,199.945,293.325z"/>
					</g>
				</g>
				<g>
					<g>
						<path fill="none" d="M199.62,304.926c1.404-4.146,3.508-7.775,4.908-11.922"/>
						<path d="M200.084,305.098c1.431-4.06,3.482-7.86,4.908-11.921c0.213-0.604-0.718-0.948-0.93-0.345
							c-1.428,4.062-3.479,7.862-4.908,11.922C198.942,305.358,199.873,305.702,200.084,305.098z"/>
					</g>
				</g>
			</g>
			<path stroke="#000000" stroke-width="0.5" d="M200.672,294.041c0,0.915-0.66,1.656-1.477,1.656s-1.477-0.742-1.477-1.656
				s0.66-1.656,1.477-1.656S200.672,293.126,200.672,294.041z"/>
		</g>
		<g>
			<path fill="none" stroke="#000000" d="M267.364,255.111v27.537"/>
			<path fill="none" stroke="#000000" d="M261.247,280.458l8,6"/>
			<path fill="none" stroke="#000000" d="M269.247,280.458l-8,6"/>
		</g>
		<g>
			<path fill="none" stroke="#000000" d="M280.674,240.455v27.537"/>
			<path fill="none" stroke="#000000" d="M274.557,265.802l8,6"/>
			<path fill="none" stroke="#000000" d="M282.557,265.802l-8,6"/>
		</g>
		<path fill="none" stroke="#0A0A0A" d="M267.116,258.005l12.559-18.014"/>
		<g>
			<path fill="none" stroke="#000000" d="M313.856,323.929v-27.537"/>
			<path fill="none" stroke="#000000" d="M319.973,298.582l-8.002-6"/>
			<path fill="none" stroke="#000000" d="M311.971,298.582l8.002-6"/>
		</g>
		<g>
			<path fill="none" stroke="#000000" d="M298.648,324.395v-27.536"/>
			<path fill="none" stroke="#000000" d="M304.764,299.046l-8-6"/>
			<path fill="none" stroke="#000000" d="M296.764,299.046l8-6"/>
		</g>
		<path fill="none" stroke="#000000" d="M298.648,324.395l14.129-0.466"/>
		<g>
			<path fill="none" stroke="#000000" d="M378.104,310.375v-27.537"/>
			<path fill="none" stroke="#000000" d="M384.219,285.027l-8-6"/>
			<path fill="none" stroke="#000000" d="M376.219,285.027l8-6"/>
		</g>
		<g>
			<path fill="none" stroke="#000000" d="M333.674,253.455v27.537"/>
			<path fill="none" stroke="#000000" d="M327.557,278.802l8,6"/>
			<path fill="none" stroke="#000000" d="M335.557,278.802l-8,6"/>
		</g>
		<g>
			<path fill="none" stroke="#000000" d="M347.661,253.754v27.537"/>
			<path fill="none" stroke="#000000" d="M341.543,279.102l8,6"/>
			<path fill="none" stroke="#000000" d="M349.543,279.102l-8,6"/>
		</g>
		<path fill="none" stroke="#000000" d="M334.415,253.593l14.129-0.466"/>
		<g>
			<path fill="none" stroke="#000000" d="M365.426,325.349v-27.537"/>
			<path fill="none" stroke="#000000" d="M371.542,300l-8-6"/>
			<path fill="none" stroke="#000000" d="M363.542,300l8-6"/>
		</g>
		<g>
			<g>
				<path fill="none" stroke="#000000" d="M344.024,325.32v-27.537"/>
				<path fill="none" stroke="#000000" d="M350.141,299.97l-8-6"/>
				<path fill="none" stroke="#000000" d="M342.141,299.97l8-6"/>
			</g>
			<g>
				<g>
					<path fill="none" d="M344.917,323.882c2.619-5.496,9.168-10.209,3.93-15.706"/>
					<path d="M345.593,324.608c1.703-3.329,4.448-6.104,5.653-9.679c0.871-2.583-0.545-4.756-2.15-6.625
						c-0.413-0.48-1.406-1.312-0.5-0.256c4.362,5.081-2.095,10.689-4.356,15.108C344.079,323.472,345.626,324.542,345.593,324.608z"
						/>
				</g>
			</g>
		</g>
		<g>
			<path fill="none" stroke="#000000" d="M367.985,239.799v27.537"/>
			<path fill="none" stroke="#000000" d="M361.868,265.146l8,6"/>
			<path fill="none" stroke="#000000" d="M369.868,265.146l-8,6"/>
		</g>
		<g>
			<path fill="none" stroke="#000000" d="M381.971,240.098v27.536"/>
			<path fill="none" stroke="#000000" d="M375.854,265.445l8,6"/>
			<path fill="none" stroke="#000000" d="M383.854,265.445l-8,6"/>
		</g>
		<path fill="none" stroke="#0A0A0A" d="M365.426,326.349l12.559-18.014"/>
		<g>
			<g>
				<path d="M329.983,293.384c0,0.859-0.393,1.556-0.877,1.556c-0.482,0-0.877-0.696-0.877-1.556c0-0.857,0.395-1.555,0.877-1.555
					C329.59,291.83,329.983,292.527,329.983,293.384z"/>
				<g>
					<g>
						<path fill="none" d="M329.633,292.348c1.752,2.073,3.154,2.073,4.557-0.519"/>
						<path d="M329.255,292.669c0.703,0.806,1.59,1.693,2.74,1.663c1.249-0.034,2.055-1.247,2.601-2.219
							c0.312-0.553-0.499-1.127-0.813-0.568c-0.379,0.673-0.85,1.56-1.656,1.779c-0.831,0.226-1.654-0.769-2.116-1.298
							C329.591,291.545,328.833,292.186,329.255,292.669z"/>
					</g>
				</g>
				<g>
					<g>
						<path fill="none" d="M328.93,304.27c1.404-4.146,3.508-7.774,4.908-11.922"/>
						<path d="M329.395,304.442c1.431-4.06,3.482-7.86,4.908-11.922c0.213-0.604-0.718-0.947-0.93-0.344
							c-1.427,4.062-3.479,7.861-4.908,11.922C328.252,304.702,329.183,305.045,329.395,304.442z"/>
					</g>
				</g>
			</g>
			<path stroke="#000000" stroke-width="0.5" d="M329.983,293.384c0,0.915-0.66,1.656-1.477,1.656s-1.477-0.741-1.477-1.656
				c0-0.914,0.66-1.656,1.477-1.656S329.983,292.47,329.983,293.384z"/>
		</g>
		<g>
			<path fill="none" stroke="#000000" d="M396.674,254.455v27.537"/>
			<path fill="none" stroke="#000000" d="M390.557,279.802l8,6"/>
			<path fill="none" stroke="#000000" d="M398.557,279.802l-8,6"/>
		</g>
		<g>
			<path fill="none" stroke="#000000" d="M409.985,239.799v27.537"/>
			<path fill="none" stroke="#000000" d="M403.868,265.146l8,6"/>
			<path fill="none" stroke="#000000" d="M411.868,265.146l-8,6"/>
		</g>
		<path fill="none" stroke="#0A0A0A" d="M396.426,257.349l12.559-18.014"/>
	</g>
</svg>
